<?xml version="1.0" encoding="UTF-8" standalone="no"?>
<!DOCTYPE svg PUBLIC "-//W3C//DTD SVG 1.1//EN"
 "http://www.w3.org/Graphics/SVG/1.1/DTD/svg11.dtd">
<!-- Generated by graphviz version 2.40.1 (20161225.0304)
 -->
<!-- Title: complicated Pages: 1 -->
<svg width="1696pt" height="2325pt"
 viewBox="0.00 0.00 407.10 558.00" xmlns="http://www.w3.org/2000/svg" xmlns:xlink="http://www.w3.org/1999/xlink">
<g id="graph0" class="graph" transform="scale(1.7273 1.7273) rotate(0) translate(4 1342)">
<title>complicated</title>
<polygon fill="#ffffff" stroke="transparent" points="-4,4 -4,-1342 978,-1342 978,4 -4,4"/>
<text text-anchor="middle" x="487" y="-1305.2" font-family="Times,serif" font-size="36.00" fill="#000000">Neural Network Involved in Spatial Memory</text>
<g id="clust30" class="cluster">
<title>cluster_hippocampus</title>
<polygon fill="none" stroke="#ff6347" stroke-width="2" points="-.3326,-189.2327 -.3326,-604.2327 404.6674,-604.2327 404.6674,-189.2327 -.3326,-189.2327"/>
<text text-anchor="middle" x="202.1674" y="-200.4327" font-family="Times,serif" font-size="36.00" fill="#000000">Hippocampus</text>
</g>
<g id="clust32" class="cluster">
<title>cluster_CA1</title>
<polygon fill="none" stroke="#ff6347" stroke-width="2" points="287.5075,-392.6866 287.5075,-549.6866 396.5075,-549.6866 396.5075,-392.6866 287.5075,-392.6866"/>
<text text-anchor="middle" x="342.0075" y="-403.8866" font-family="Times,serif" font-size="36.00" fill="#000000">CA1</text>
</g>
<g id="clust31" class="cluster">
<title>cluster_CA3</title>
<polygon fill="none" stroke="#ff6347" stroke-width="2" points="9.1568,-476.7345 9.1568,-595.7345 268.1568,-595.7345 268.1568,-476.7345 9.1568,-476.7345"/>
<text text-anchor="middle" x="138.6568" y="-487.9345" font-family="Times,serif" font-size="36.00" fill="#000000">CA3</text>
</g>
<g id="clust33" class="cluster">
<title>cluster_Sub</title>
<polygon fill="none" stroke="#ff6347" stroke-width="2" points="8.0581,-244.8086 8.0581,-379.8086 131.0581,-379.8086 131.0581,-244.8086 8.0581,-244.8086"/>
<text text-anchor="middle" x="69.5581" y="-256.0086" font-family="Times,serif" font-size="36.00" fill="#000000">Sub</text>
</g>
<g id="clust34" class="cluster">
<title>cluster_EC</title>
<polygon fill="none" stroke="#a2cd5a" stroke-width="2" points="625.1645,-686.5143 625.1645,-1258.5143 910.1645,-1258.5143 910.1645,-686.5143 625.1645,-686.5143"/>
<text text-anchor="middle" x="767.6645" y="-697.7143" font-family="Times,serif" font-size="36.00" fill="#000000">Periarchicortex</text>
</g>
<g id="clust35" class="cluster">
<title>cluster_MEC</title>
<polygon fill="none" stroke="#a2cd5a" stroke-width="2" points="680.4289,-925.6938 680.4289,-1250.6938 902.4289,-1250.6938 902.4289,-925.6938 680.4289,-925.6938"/>
<text text-anchor="middle" x="791.4289" y="-936.8938" font-family="Times,serif" font-size="36.00" fill="#000000">MEC</text>
</g>
<g id="clust36" class="cluster">
<title>cluster_LEC</title>
<polygon fill="none" stroke="#a2cd5a" stroke-width="2" points="641.618,-738.3254 641.618,-904.3254 844.618,-904.3254 844.618,-738.3254 641.618,-738.3254"/>
<text text-anchor="middle" x="743.118" y="-749.5254" font-family="Times,serif" font-size="36.00" fill="#000000">LEC</text>
</g>
<g id="clust37" class="cluster">
<title>cluster_Subcortex</title>
<polygon fill="none" stroke="#d8bfd8" stroke-width="2" points="463.6628,-.2162 463.6628,-599.2162 973.6628,-599.2162 973.6628,-.2162 463.6628,-.2162"/>
<text text-anchor="middle" x="718.6628" y="-11.4162" font-family="Times,serif" font-size="36.00" fill="#000000">Subcortex</text>
</g>
<g id="clust38" class="cluster">
<title>cluster_BasalGanglia</title>
<polygon fill="none" stroke="#d8bfd8" stroke-width="2" points="478.7405,-431.7656 478.7405,-527.7656 696.7405,-527.7656 696.7405,-431.7656 478.7405,-431.7656"/>
<text text-anchor="middle" x="587.7405" y="-442.9656" font-family="Times,serif" font-size="36.00" fill="#000000">Basal Ganglia</text>
</g>
<g id="clust39" class="cluster">
<title>cluster_Thalamus</title>
<polygon fill="none" stroke="#d8bfd8" stroke-width="2" points="768.185,-397.2691 768.185,-591.2691 926.185,-591.2691 926.185,-397.2691 768.185,-397.2691"/>
<text text-anchor="middle" x="847.185" y="-408.4691" font-family="Times,serif" font-size="36.00" fill="#000000">Thalamus</text>
</g>
<g id="clust40" class="cluster">
<title>cluster_Septal</title>
<polygon fill="none" stroke="#d8bfd8" stroke-width="2" points="471.4882,-52.3901 471.4882,-255.3901 716.4882,-255.3901 716.4882,-52.3901 471.4882,-52.3901"/>
<text text-anchor="middle" x="593.9882" y="-63.5901" font-family="Times,serif" font-size="36.00" fill="#000000">Basal Forebrain</text>
</g>
<g id="clust41" class="cluster">
<title>cluster_Hypothalamus</title>
<polygon fill="none" stroke="#d8bfd8" stroke-width="2" points="740.8853,-81.0883 740.8853,-256.0883 965.8853,-256.0883 965.8853,-81.0883 740.8853,-81.0883"/>
<text text-anchor="middle" x="853.3853" y="-92.2883" font-family="Times,serif" font-size="36.00" fill="#000000">Hypothalamus</text>
</g>
<g id="clust42" class="cluster">
<title>cluster_Neocortex</title>
<polygon fill="none" stroke="#add8e6" stroke-width="2" points="14.0519,-840.1576 14.0519,-1294.1576 486.0519,-1294.1576 486.0519,-840.1576 14.0519,-840.1576"/>
<text text-anchor="middle" x="250.0519" y="-851.3576" font-family="Times,serif" font-size="36.00" fill="#000000">Neocortex</text>
</g>
<g id="clust43" class="cluster">
<title>cluster_TL</title>
<polygon fill="none" stroke="#add8e6" stroke-width="2" points="53.1776,-1176.4909 53.1776,-1286.4909 314.1776,-1286.4909 314.1776,-1176.4909 53.1776,-1176.4909"/>
<text text-anchor="middle" x="183.6776" y="-1187.6909" font-family="Times,serif" font-size="36.00" fill="#000000">Temporal Lobe</text>
</g>
<g id="clust44" class="cluster">
<title>cluster_PPC</title>
<polygon fill="none" stroke="#add8e6" stroke-width="2" points="269.5897,-1000.6272 269.5897,-1104.6272 477.5897,-1104.6272 477.5897,-1000.6272 269.5897,-1000.6272"/>
<text text-anchor="middle" x="373.5897" y="-1011.8272" font-family="Times,serif" font-size="36.00" fill="#000000">Parietal Lobe</text>
</g>
<g id="clust45" class="cluster">
<title>cluster_FC</title>
<polygon fill="none" stroke="#add8e6" stroke-width="2" points="21.7995,-892.2915 21.7995,-1046.2915 239.7995,-1046.2915 239.7995,-892.2915 21.7995,-892.2915"/>
<text text-anchor="middle" x="130.7995" y="-903.4915" font-family="Times,serif" font-size="36.00" fill="#000000">Frontal Lobe</text>
</g>
<!-- 1 -->
<g id="node1" class="node">
<title>1</title>
<ellipse fill="#ff6347" stroke="#ff6347" cx="170.9269" cy="-288.9914" rx="18" ry="18"/>
<text text-anchor="middle" x="170.9269" y="-285.9914" font-family="Times,serif" font-size="10.00" fill="#000000">DG</text>
</g>
<!-- 2 -->
<g id="node2" class="node">
<title>2</title>
<ellipse fill="#ff6347" stroke="#ff6347" cx="241.8349" cy="-546.5363" rx="18" ry="18"/>
<text text-anchor="middle" x="241.8349" y="-543.5363" font-family="Times,serif" font-size="10.00" fill="#000000">CA3_c</text>
</g>
<!-- 1&#45;&gt;2 -->
<g id="edge1" class="edge">
<title>1&#45;&gt;2</title>
<path fill="none" stroke="#ff6347" stroke-width="2" d="M175.8006,-306.6935C187.9742,-350.9089 219.7768,-466.4191 234.3473,-519.3407"/>
<polygon fill="#ff6347" stroke="#ff6347" stroke-width="2" points="230.9918,-520.3387 237.0207,-529.0508 237.7407,-518.4805 230.9918,-520.3387"/>
</g>
<!-- 3 -->
<g id="node3" class="node">
<title>3</title>
<ellipse fill="#ff6347" stroke="#ff6347" cx="34.8943" cy="-569.8411" rx="18" ry="18"/>
<text text-anchor="middle" x="34.8943" y="-566.8411" font-family="Times,serif" font-size="10.00" fill="#000000">CA3_ab</text>
</g>
<!-- 1&#45;&gt;3 -->
<g id="edge2" class="edge">
<title>1&#45;&gt;3</title>
<path fill="none" stroke="#ff6347" stroke-width="2" d="M163.0252,-305.305C140.2973,-352.2284 74.631,-487.8017 47.1822,-544.4718"/>
<polygon fill="#ff6347" stroke="#ff6347" stroke-width="2" points="44.0271,-542.9569 42.8178,-553.4825 50.327,-546.0083 44.0271,-542.9569"/>
</g>
<!-- 2&#45;&gt;2 -->
<g id="edge4" class="edge">
<title>2&#45;&gt;2</title>
<path fill="none" stroke="#ff6347" stroke-width="2" d="M253.6144,-560.2925C310.0958,-618.1998 403.8349,-613.6144 403.8349,-546.5363 403.8349,-482.3404 317.9785,-475.3822 261.0912,-525.6615"/>
<polygon fill="#ff6347" stroke="#ff6347" stroke-width="2" points="258.4435,-523.3497 253.6144,-532.78 263.2703,-528.4195 258.4435,-523.3497"/>
</g>
<!-- 2&#45;&gt;3 -->
<g id="edge5" class="edge">
<title>2&#45;&gt;3</title>
<path fill="none" stroke="#ff6347" stroke-width="2" d="M223.8323,-548.5636C187.7527,-552.6268 106.357,-561.7933 63.1217,-566.6623"/>
<polygon fill="#ff6347" stroke="#ff6347" stroke-width="2" points="62.5481,-563.2046 53.0026,-567.8018 63.3315,-570.1607 62.5481,-563.2046"/>
</g>
<!-- 4 -->
<g id="node4" class="node">
<title>4</title>
<ellipse fill="#ff6347" stroke="#ff6347" cx="282.3716" cy="-259.2043" rx="18" ry="18"/>
<text text-anchor="middle" x="282.3716" y="-256.2043" font-family="Times,serif" font-size="10.00" fill="#000000">CA2</text>
</g>
<!-- 2&#45;&gt;4 -->
<g id="edge6" class="edge">
<title>2&#45;&gt;4</title>
<path fill="none" stroke="#ff6347" stroke-width="2" d="M244.3706,-528.5624C251.2239,-479.9849 270.1548,-345.7991 278.4224,-287.1966"/>
<polygon fill="#ff6347" stroke="#ff6347" stroke-width="2" points="281.9054,-287.5624 279.8368,-277.1714 274.9741,-286.5844 281.9054,-287.5624"/>
</g>
<!-- 5 -->
<g id="node5" class="node">
<title>5</title>
<ellipse fill="#ff6347" stroke="#ff6347" cx="313.1609" cy="-463.1228" rx="18" ry="18"/>
<text text-anchor="middle" x="313.1609" y="-460.1228" font-family="Times,serif" font-size="10.00" fill="#000000">CA1_d</text>
</g>
<!-- 2&#45;&gt;5 -->
<g id="edge7" class="edge">
<title>2&#45;&gt;5</title>
<path fill="none" stroke="#ff6347" stroke-width="2" d="M253.6129,-532.7622C264.7636,-519.7219 281.6797,-499.9391 294.6364,-484.7867"/>
<polygon fill="#ff6347" stroke="#ff6347" stroke-width="2" points="297.5265,-486.7922 301.3654,-476.9173 292.2063,-482.243 297.5265,-486.7922"/>
</g>
<!-- 6 -->
<g id="node6" class="node">
<title>6</title>
<ellipse fill="#ff6347" stroke="#ff6347" cx="370.3225" cy="-523.9656" rx="18" ry="18"/>
<text text-anchor="middle" x="370.3225" y="-520.9656" font-family="Times,serif" font-size="10.00" fill="#000000">CA1_p</text>
</g>
<!-- 2&#45;&gt;6 -->
<g id="edge8" class="edge">
<title>2&#45;&gt;6</title>
<path fill="none" stroke="#ff6347" stroke-width="2" d="M259.7005,-543.3979C281.0593,-539.646 317.0626,-533.3215 342.1738,-528.9104"/>
<polygon fill="#ff6347" stroke="#ff6347" stroke-width="2" points="342.9508,-532.3275 352.1944,-527.1501 341.7396,-525.4331 342.9508,-532.3275"/>
</g>
<!-- 18 -->
<g id="node18" class="node">
<title>18</title>
<polygon fill="#d8bfd8" stroke="#d8bfd8" points="640.8617,-122.8118 631.8617,-140.8118 613.8617,-140.8118 604.8617,-122.8118 613.8617,-104.8118 631.8617,-104.8118 640.8617,-122.8118"/>
<text text-anchor="middle" x="622.8617" y="-119.8118" font-family="Times,serif" font-size="10.00" fill="#000000">LS</text>
</g>
<!-- 2&#45;&gt;18 -->
<g id="edge9" class="edge">
<title>2&#45;&gt;18</title>
<path fill="none" stroke="#ff6347" stroke-width="2" d="M256.7,-535.7706C274.2721,-522.7428 304.0201,-499.7243 326.9416,-477.0603 387.4631,-417.2189 551.2843,-212.7913 605.3124,-144.9167"/>
<polygon fill="#ff6347" stroke="#ff6347" stroke-width="2" points="608.14,-146.9842 611.6255,-136.9791 602.6615,-142.6269 608.14,-146.9842"/>
</g>
<!-- 3&#45;&gt;3 -->
<g id="edge10" class="edge">
<title>3&#45;&gt;3</title>
<path fill="none" stroke="#ff6347" stroke-width="2" d="M46.6738,-583.5974C103.1552,-641.5047 196.8943,-636.9192 196.8943,-569.8411 196.8943,-505.6453 111.0379,-498.687 54.1506,-548.9664"/>
<polygon fill="#ff6347" stroke="#ff6347" stroke-width="2" points="51.5029,-546.6546 46.6738,-556.0849 56.3297,-551.7243 51.5029,-546.6546"/>
</g>
<!-- 3&#45;&gt;4 -->
<g id="edge11" class="edge">
<title>3&#45;&gt;4</title>
<path fill="none" stroke="#ff6347" stroke-width="2" d="M46.1709,-555.6865C85.4658,-506.3631 216.5752,-341.7928 264.5712,-281.5476"/>
<polygon fill="#ff6347" stroke="#ff6347" stroke-width="2" points="267.535,-283.4444 271.0287,-273.4421 262.0601,-279.0826 267.535,-283.4444"/>
</g>
<!-- 3&#45;&gt;5 -->
<g id="edge12" class="edge">
<title>3&#45;&gt;5</title>
<path fill="none" stroke="#ff6347" stroke-width="2" d="M51.8822,-563.3261C98.7463,-545.3532 230.1171,-494.971 286.6942,-473.2731"/>
<polygon fill="#ff6347" stroke="#ff6347" stroke-width="2" points="287.9581,-476.537 296.0417,-469.6882 285.4515,-470.0012 287.9581,-476.537"/>
</g>
<!-- 3&#45;&gt;6 -->
<g id="edge13" class="edge">
<title>3&#45;&gt;6</title>
<path fill="none" stroke="#ff6347" stroke-width="2" d="M52.4433,-565.0777C87.9114,-555.7018 170.809,-535.0601 241.924,-526.9365 276.0401,-523.0393 315.5748,-522.7558 341.663,-523.1486"/>
<polygon fill="#ff6347" stroke="#ff6347" stroke-width="2" points="341.8989,-526.6538 351.9654,-523.3498 342.0357,-519.6551 341.8989,-526.6538"/>
</g>
<!-- 3&#45;&gt;18 -->
<g id="edge14" class="edge">
<title>3&#45;&gt;18</title>
<path fill="none" stroke="#ff6347" stroke-width="2" d="M49.4284,-558.7909C128.5694,-498.6203 507.4711,-210.5428 601.6391,-138.9473"/>
<polygon fill="#ff6347" stroke="#ff6347" stroke-width="2" points="603.766,-141.7269 609.6082,-132.8884 599.5294,-136.1546 603.766,-141.7269"/>
</g>
<!-- 4&#45;&gt;5 -->
<g id="edge15" class="edge">
<title>4&#45;&gt;5</title>
<path fill="none" stroke="#ff6347" stroke-width="2" d="M285.1039,-277.3007C290.4903,-312.9746 302.5121,-392.5954 308.9309,-435.1076"/>
<polygon fill="#ff6347" stroke="#ff6347" stroke-width="2" points="305.4809,-435.7016 310.4347,-445.067 312.4024,-434.6565 305.4809,-435.7016"/>
</g>
<!-- 4&#45;&gt;6 -->
<g id="edge16" class="edge">
<title>4&#45;&gt;6</title>
<path fill="none" stroke="#ff6347" stroke-width="2" d="M288.1423,-276.5761C303.1495,-321.7527 343.479,-443.1578 361.4597,-497.2855"/>
<polygon fill="#ff6347" stroke="#ff6347" stroke-width="2" points="358.1708,-498.4875 364.6449,-506.8741 364.8139,-496.2807 358.1708,-498.4875"/>
</g>
<!-- 11 -->
<g id="node11" class="node">
<title>11</title>
<polygon fill="#a2cd5a" stroke="#a2cd5a" points="724.9127,-1242.9966 688.9127,-1242.9966 688.9127,-1206.9966 724.9127,-1206.9966 724.9127,-1242.9966"/>
<text text-anchor="middle" x="706.9127" y="-1221.9966" font-family="Times,serif" font-size="10.00" fill="#000000">MEC_d</text>
</g>
<!-- 4&#45;&gt;11 -->
<g id="edge17" class="edge">
<title>4&#45;&gt;11</title>
<path fill="none" stroke="#ff6347" stroke-width="2" d="M289.1568,-275.8803C334.1894,-386.5038 589.3766,-1012.5551 630.2795,-1094.5231 648.7463,-1131.5299 673.483,-1172.3658 689.7933,-1198.3247"/>
<polygon fill="#ff6347" stroke="#ff6347" stroke-width="2" points="686.8846,-1200.2736 695.187,-1206.8555 692.8012,-1196.5328 686.8846,-1200.2736"/>
</g>
<!-- 14 -->
<g id="node14" class="node">
<title>14</title>
<polygon fill="#a2cd5a" stroke="#a2cd5a" points="815.1607,-896.0783 779.1607,-896.0783 779.1607,-860.0783 815.1607,-860.0783 815.1607,-896.0783"/>
<text text-anchor="middle" x="797.1607" y="-875.0783" font-family="Times,serif" font-size="10.00" fill="#000000">LEC_d</text>
</g>
<!-- 4&#45;&gt;14 -->
<g id="edge18" class="edge">
<title>4&#45;&gt;14</title>
<path fill="none" stroke="#ff6347" stroke-width="2" d="M294.0909,-273.2932C360.3184,-352.9112 687.8575,-746.6752 775.539,-852.0849"/>
<polygon fill="#ff6347" stroke="#ff6347" stroke-width="2" points="773.0391,-854.5527 782.1248,-860.0024 778.4206,-850.0762 773.0391,-854.5527"/>
</g>
<!-- 7 -->
<g id="node7" class="node">
<title>7</title>
<ellipse fill="#ff6347" stroke="#ff6347" cx="34.3071" cy="-315.3064" rx="18" ry="18"/>
<text text-anchor="middle" x="34.3071" y="-312.3064" font-family="Times,serif" font-size="10.00" fill="#000000">Sub_p</text>
</g>
<!-- 5&#45;&gt;7 -->
<g id="edge19" class="edge">
<title>5&#45;&gt;7</title>
<path fill="none" stroke="#ff6347" stroke-width="2" d="M299.2346,-451.2565C267.4085,-424.9013 185.8849,-361.6509 105.6265,-334.1307 91.4802,-329.28 75.3989,-324.9376 62.0919,-321.6491"/>
<polygon fill="#ff6347" stroke="#ff6347" stroke-width="2" points="62.6457,-318.1826 52.1046,-319.2482 61.0095,-324.9887 62.6457,-318.1826"/>
</g>
<!-- 5&#45;&gt;11 -->
<g id="edge20" class="edge">
<title>5&#45;&gt;11</title>
<path fill="none" stroke="#ff6347" stroke-width="2" d="M320.8613,-479.4237C355.3016,-552.1152 499.26,-853.6951 630.2795,-1094.5231 650.0444,-1130.8532 674.4825,-1171.8447 690.3706,-1198.0237"/>
<polygon fill="#ff6347" stroke="#ff6347" stroke-width="2" points="687.4226,-1199.9121 695.6121,-1206.6339 693.4018,-1196.2722 687.4226,-1199.9121"/>
</g>
<!-- 19 -->
<g id="node19" class="node">
<title>19</title>
<polygon fill="#d8bfd8" stroke="#d8bfd8" points="583.5912,-229.1466 574.5912,-247.1466 556.5912,-247.1466 547.5912,-229.1466 556.5912,-211.1466 574.5912,-211.1466 583.5912,-229.1466"/>
<text text-anchor="middle" x="565.5912" y="-226.1466" font-family="Times,serif" font-size="10.00" fill="#000000">MS</text>
</g>
<!-- 5&#45;&gt;19 -->
<g id="edge21" class="edge">
<title>5&#45;&gt;19</title>
<path fill="none" stroke="#ff6347" stroke-width="2" d="M326.3773,-450.8727C367.8901,-412.3946 495.8563,-293.7835 545.5605,-247.713"/>
<polygon fill="#ff6347" stroke="#ff6347" stroke-width="2" points="548.1507,-250.0844 553.1055,-240.7196 543.3921,-244.9506 548.1507,-250.0844"/>
</g>
<!-- 22 -->
<g id="node26" class="node">
<title>22</title>
<polygon fill="#add8e6" stroke="#add8e6" points="65.5263,-980.4256 29.5263,-980.4256 29.5263,-944.4256 65.5263,-944.4256 65.5263,-980.4256"/>
<text text-anchor="middle" x="47.5263" y="-959.4256" font-family="Times,serif" font-size="10.00" fill="#000000">PL_IL</text>
</g>
<!-- 5&#45;&gt;22 -->
<g id="edge22" class="edge">
<title>5&#45;&gt;22</title>
<path fill="none" stroke="#ff6347" stroke-width="2" d="M304.6236,-479.17C266.3281,-551.1525 110.1557,-844.7037 61.8402,-935.5203"/>
<polygon fill="#ff6347" stroke="#ff6347" stroke-width="2" points="58.7329,-933.9093 57.1259,-944.3816 64.9127,-937.1971 58.7329,-933.9093"/>
</g>
<!-- 25 -->
<g id="node29" class="node">
<title>25</title>
<polygon fill="#add8e6" stroke="#add8e6" points="367.507,-1096.4253 331.507,-1096.4253 331.507,-1060.4253 367.507,-1060.4253 367.507,-1096.4253"/>
<text text-anchor="middle" x="349.507" y="-1075.4253" font-family="Times,serif" font-size="10.00" fill="#000000">RSC</text>
</g>
<!-- 5&#45;&gt;25 -->
<g id="edge23" class="edge">
<title>5&#45;&gt;25</title>
<path fill="none" stroke="#ff6347" stroke-width="2" d="M314.229,-481.2044C319.3648,-568.1491 341.5309,-943.3983 347.8311,-1050.0532"/>
<polygon fill="#ff6347" stroke="#ff6347" stroke-width="2" points="344.3552,-1050.5665 348.4389,-1060.3427 351.343,-1050.1537 344.3552,-1050.5665"/>
</g>
<!-- 8 -->
<g id="node8" class="node">
<title>8</title>
<ellipse fill="#ff6347" stroke="#ff6347" cx="105.4324" cy="-353.7298" rx="18" ry="18"/>
<text text-anchor="middle" x="105.4324" y="-350.7298" font-family="Times,serif" font-size="10.00" fill="#000000">Sub_d</text>
</g>
<!-- 6&#45;&gt;8 -->
<g id="edge24" class="edge">
<title>6&#45;&gt;8</title>
<path fill="none" stroke="#ff6347" stroke-width="2" d="M354.936,-514.0772C310.679,-485.6348 182.8098,-403.4576 129.36,-369.1073"/>
<polygon fill="#ff6347" stroke="#ff6347" stroke-width="2" points="131.1662,-366.1076 120.8614,-363.6455 127.3817,-371.9964 131.1662,-366.1076"/>
</g>
<!-- 6&#45;&gt;14 -->
<g id="edge25" class="edge">
<title>6&#45;&gt;14</title>
<path fill="none" stroke="#ff6347" stroke-width="2" d="M384.3027,-535.4668C428.8011,-572.0869 571.1128,-689.2955 688.4114,-786.9345 716.7839,-810.5516 749.2036,-837.7506 771.2101,-856.2452"/>
<polygon fill="#ff6347" stroke="#ff6347" stroke-width="2" points="769.1975,-859.1258 779.1043,-862.8817 773.702,-853.7676 769.1975,-859.1258"/>
</g>
<!-- 16 -->
<g id="node16" class="node">
<title>16</title>
<polygon fill="#a2cd5a" stroke="#a2cd5a" points="306.1956,-1264.9288 270.1956,-1264.9288 270.1956,-1228.9288 306.1956,-1228.9288 306.1956,-1264.9288"/>
<text text-anchor="middle" x="288.1956" y="-1243.9288" font-family="Times,serif" font-size="10.00" fill="#000000">PER</text>
</g>
<!-- 6&#45;&gt;16 -->
<g id="edge26" class="edge">
<title>6&#45;&gt;16</title>
<path fill="none" stroke="#ff6347" stroke-width="2" d="M368.2514,-542.1983C357.1783,-639.674 304.9657,-1099.3019 291.4148,-1218.5899"/>
<polygon fill="#ff6347" stroke="#ff6347" stroke-width="2" points="287.9124,-1218.4142 290.2612,-1228.7454 294.8676,-1219.2044 287.9124,-1218.4142"/>
</g>
<!-- 6&#45;&gt;19 -->
<g id="edge27" class="edge">
<title>6&#45;&gt;19</title>
<path fill="none" stroke="#ff6347" stroke-width="2" d="M380.2744,-508.9402C411.9226,-461.1574 510.4541,-312.3934 549.4591,-253.5031"/>
<polygon fill="#ff6347" stroke="#ff6347" stroke-width="2" points="552.5847,-255.1224 555.1887,-244.8525 546.7487,-251.2569 552.5847,-255.1224"/>
</g>
<!-- 6&#45;&gt;22 -->
<g id="edge28" class="edge">
<title>6&#45;&gt;22</title>
<path fill="none" stroke="#ff6347" stroke-width="2" d="M359.5825,-538.554C312.9884,-601.8437 127.9617,-853.1687 67.0682,-935.8815"/>
<polygon fill="#ff6347" stroke="#ff6347" stroke-width="2" points="64.1915,-933.8856 61.0813,-944.0136 69.8286,-938.0356 64.1915,-933.8856"/>
</g>
<!-- 6&#45;&gt;25 -->
<g id="edge29" class="edge">
<title>6&#45;&gt;25</title>
<path fill="none" stroke="#ff6347" stroke-width="2" d="M369.6418,-542.0983C366.6061,-622.9597 354.2902,-951.0163 350.5738,-1050.009"/>
<polygon fill="#ff6347" stroke="#ff6347" stroke-width="2" points="347.0708,-1050.0268 350.1931,-1060.1511 354.0658,-1050.2894 347.0708,-1050.0268"/>
</g>
<!-- 7&#45;&gt;11 -->
<g id="edge31" class="edge">
<title>7&#45;&gt;11</title>
<path fill="none" stroke="#ff6347" stroke-width="2" d="M45.1445,-329.9639C122.1105,-434.0593 585.9018,-1061.3308 687.3264,-1198.5063"/>
<polygon fill="#ff6347" stroke="#ff6347" stroke-width="2" points="684.7156,-1200.8624 693.4751,-1206.8223 690.3442,-1196.7007 684.7156,-1200.8624"/>
</g>
<!-- 15 -->
<g id="node15" class="node">
<title>15</title>
<polygon fill="#a2cd5a" stroke="#a2cd5a" points="669.4795,-1091.3231 633.4795,-1091.3231 633.4795,-1055.3231 669.4795,-1055.3231 669.4795,-1091.3231"/>
<text text-anchor="middle" x="651.4795" y="-1070.3231" font-family="Times,serif" font-size="10.00" fill="#000000">PrS_PoS</text>
</g>
<!-- 7&#45;&gt;15 -->
<g id="edge32" class="edge">
<title>7&#45;&gt;15</title>
<path fill="none" stroke="#ff6347" stroke-width="2" d="M45.5472,-329.7534C75.1351,-367.7346 157.7337,-473.4511 227.9128,-560.3324 379.9037,-748.4965 566.6876,-972.116 629.6166,-1047.2501"/>
<polygon fill="#ff6347" stroke="#ff6347" stroke-width="2" points="627.2265,-1049.8472 636.3314,-1055.2648 632.5922,-1045.3517 627.2265,-1049.8472"/>
</g>
<!-- 7&#45;&gt;19 -->
<g id="edge33" class="edge">
<title>7&#45;&gt;19</title>
<path fill="none" stroke="#ff6347" stroke-width="2" d="M52.5019,-315.2747C78.7547,-315.0338 128.7392,-313.8433 170.9187,-308.5914 311.5563,-291.0801 477.0114,-251.4676 539.7375,-235.7514"/>
<polygon fill="#ff6347" stroke="#ff6347" stroke-width="2" points="540.727,-239.1115 549.5677,-233.2726 539.0154,-232.3239 540.727,-239.1115"/>
</g>
<!-- 20 -->
<g id="node20" class="node">
<title>20</title>
<polygon fill="#d8bfd8" stroke="#d8bfd8" points="906.6873,-230.2553 897.6873,-248.2553 879.6873,-248.2553 870.6873,-230.2553 879.6873,-212.2553 897.6873,-212.2553 906.6873,-230.2553"/>
<text text-anchor="middle" x="888.6873" y="-227.2553" font-family="Times,serif" font-size="10.00" fill="#000000">lMB</text>
</g>
<!-- 7&#45;&gt;20 -->
<g id="edge34" class="edge">
<title>7&#45;&gt;20</title>
<path fill="none" stroke="#ff6347" stroke-width="2" d="M52.4494,-314.7587C78.6384,-313.89 128.5457,-311.9421 170.9187,-308.5914 441.0753,-287.2287 766.831,-246.0805 861.6126,-233.7994"/>
<polygon fill="#ff6347" stroke="#ff6347" stroke-width="2" points="862.3015,-237.2394 871.7669,-232.4794 861.3991,-230.2978 862.3015,-237.2394"/>
</g>
<!-- 28 -->
<g id="node24" class="node">
<title>28</title>
<polygon fill="#d8bfd8" stroke="#d8bfd8" points="915.2347,-467.0176 906.2347,-485.0176 888.2347,-485.0176 879.2347,-467.0176 888.2347,-449.0176 906.2347,-449.0176 915.2347,-467.0176"/>
<text text-anchor="middle" x="897.2347" y="-464.0176" font-family="Times,serif" font-size="10.00" fill="#000000">MdT</text>
</g>
<!-- 7&#45;&gt;28 -->
<g id="edge35" class="edge">
<title>7&#45;&gt;28</title>
<path fill="none" stroke="#ff6347" stroke-width="2" d="M52.3305,-318.4751C161.9147,-337.741 738.4166,-439.0958 870.3304,-462.2875"/>
<polygon fill="#ff6347" stroke="#ff6347" stroke-width="2" points="869.9263,-465.7701 880.3813,-464.0546 871.1384,-458.8758 869.9263,-465.7701"/>
</g>
<!-- 7&#45;&gt;22 -->
<g id="edge36" class="edge">
<title>7&#45;&gt;22</title>
<path fill="none" stroke="#ff6347" stroke-width="2" d="M36.3575,-333.4946C40.9286,-375.2269 51.7664,-481.1105 54.4936,-570.0047 58.6711,-706.1742 52.0738,-869.0052 48.9836,-933.7969"/>
<polygon fill="#ff6347" stroke="#ff6347" stroke-width="2" points="45.4758,-933.8748 48.4853,-944.0332 52.4675,-934.2153 45.4758,-933.8748"/>
</g>
<!-- 7&#45;&gt;25 -->
<g id="edge37" class="edge">
<title>7&#45;&gt;25</title>
<path fill="none" stroke="#ff6347" stroke-width="2" d="M41.1836,-331.9549C81.5083,-429.5836 287.2426,-927.6793 338.1181,-1050.852"/>
<polygon fill="#ff6347" stroke="#ff6347" stroke-width="2" points="334.9819,-1052.4275 342.0345,-1060.3339 341.4518,-1049.7551 334.9819,-1052.4275"/>
</g>
<!-- 8&#45;&gt;14 -->
<g id="edge39" class="edge">
<title>8&#45;&gt;14</title>
<path fill="none" stroke="#ff6347" stroke-width="2" d="M119.9949,-364.3724C198.8393,-422.0208 575.2153,-697.566 688.4114,-786.9345 717.2141,-809.6742 749.3201,-836.812 771.132,-855.5292"/>
<polygon fill="#ff6347" stroke="#ff6347" stroke-width="2" points="769.096,-858.3947 778.9592,-862.2637 773.6616,-853.0884 769.096,-858.3947"/>
</g>
<!-- 8&#45;&gt;15 -->
<g id="edge40" class="edge">
<title>8&#45;&gt;15</title>
<path fill="none" stroke="#ff6347" stroke-width="2" d="M117.4473,-367.3967C143.3587,-397.0079 206.1608,-469.5186 255.757,-532.7401 407.1409,-725.7127 577.6334,-967.5694 633.0372,-1046.8407"/>
<polygon fill="#ff6347" stroke="#ff6347" stroke-width="2" points="630.3277,-1049.074 638.9224,-1055.2694 636.0671,-1045.0665 630.3277,-1049.074"/>
</g>
<!-- 8&#45;&gt;16 -->
<g id="edge41" class="edge">
<title>8&#45;&gt;16</title>
<path fill="none" stroke="#ff6347" stroke-width="2" d="M109.0831,-371.5718C131.8359,-482.7689 254.1421,-1080.5026 282.3771,-1218.4928"/>
<polygon fill="#ff6347" stroke="#ff6347" stroke-width="2" points="279.0266,-1219.578 284.4602,-1228.6733 285.8845,-1218.1747 279.0266,-1219.578"/>
</g>
<!-- 8&#45;&gt;19 -->
<g id="edge42" class="edge">
<title>8&#45;&gt;19</title>
<path fill="none" stroke="#ff6347" stroke-width="2" d="M122.9093,-348.9981C193.2821,-329.9454 456.1232,-258.7839 539.8198,-236.124"/>
<polygon fill="#ff6347" stroke="#ff6347" stroke-width="2" points="540.8089,-239.4823 549.5467,-233.4905 538.9795,-232.7255 540.8089,-239.4823"/>
</g>
<!-- 8&#45;&gt;20 -->
<g id="edge43" class="edge">
<title>8&#45;&gt;20</title>
<path fill="none" stroke="#ff6347" stroke-width="2" d="M123.2634,-350.9188C225.6046,-334.7855 738.0641,-253.9999 861.7772,-234.4974"/>
<polygon fill="#ff6347" stroke="#ff6347" stroke-width="2" points="862.5614,-237.9171 871.8943,-232.9026 861.4713,-231.0025 862.5614,-237.9171"/>
</g>
<!-- 8&#45;&gt;28 -->
<g id="edge44" class="edge">
<title>8&#45;&gt;28</title>
<path fill="none" stroke="#ff6347" stroke-width="2" d="M123.458,-356.3088C226.916,-371.1111 744.9679,-445.2319 870.031,-463.1254"/>
<polygon fill="#ff6347" stroke="#ff6347" stroke-width="2" points="869.8635,-466.637 880.2585,-464.5887 870.855,-459.7076 869.8635,-466.637"/>
</g>
<!-- 8&#45;&gt;22 -->
<g id="edge45" class="edge">
<title>8&#45;&gt;22</title>
<path fill="none" stroke="#ff6347" stroke-width="2" d="M103.6994,-371.9468C95.4661,-458.4927 60.2857,-828.3023 50.2241,-934.0671"/>
<polygon fill="#ff6347" stroke="#ff6347" stroke-width="2" points="46.7154,-933.9931 49.2526,-944.2796 53.684,-934.6561 46.7154,-933.9931"/>
</g>
<!-- 8&#45;&gt;25 -->
<g id="edge46" class="edge">
<title>8&#45;&gt;25</title>
<path fill="none" stroke="#ff6347" stroke-width="2" d="M111.225,-370.9289C143.3894,-466.4301 300.0205,-931.4923 340.1339,-1050.5951"/>
<polygon fill="#ff6347" stroke="#ff6347" stroke-width="2" points="336.9321,-1052.0542 343.4409,-1060.414 343.5659,-1049.8199 336.9321,-1052.0542"/>
</g>
<!-- 9 -->
<g id="node9" class="node">
<title>9</title>
<polygon fill="#a2cd5a" stroke="#a2cd5a" points="894.4724,-1202.0052 858.4724,-1202.0052 858.4724,-1166.0052 894.4724,-1166.0052 894.4724,-1202.0052"/>
<text text-anchor="middle" x="876.4724" y="-1181.0052" font-family="Times,serif" font-size="10.00" fill="#000000">MEC_2</text>
</g>
<!-- 9&#45;&gt;1 -->
<g id="edge47" class="edge">
<title>9&#45;&gt;1</title>
<path fill="none" stroke="#a2cd5a" stroke-width="2" d="M860.716,-1165.8961C791.7874,-1086.4333 510.7915,-759.9696 299.2235,-476.9035 256.2748,-419.4406 209.6955,-348.9379 186.2514,-312.8156"/>
<polygon fill="#a2cd5a" stroke="#a2cd5a" stroke-width="2" points="189.1775,-310.895 180.8058,-304.4015 183.3009,-314.6984 189.1775,-310.895"/>
</g>
<!-- 9&#45;&gt;2 -->
<g id="edge48" class="edge">
<title>9&#45;&gt;2</title>
<path fill="none" stroke="#a2cd5a" stroke-width="2" d="M858.5013,-1165.9539C767.4639,-1074.5103 357.777,-662.9956 261.9354,-566.7265"/>
<polygon fill="#a2cd5a" stroke="#a2cd5a" stroke-width="2" points="264.1463,-563.9864 254.6105,-559.3689 259.1855,-568.9251 264.1463,-563.9864"/>
</g>
<!-- 9&#45;&gt;3 -->
<g id="edge49" class="edge">
<title>9&#45;&gt;3</title>
<path fill="none" stroke="#a2cd5a" stroke-width="2" d="M858.1122,-1170.6064C748.3628,-1090.5138 179.718,-675.5301 57.8886,-586.6218"/>
<polygon fill="#a2cd5a" stroke="#a2cd5a" stroke-width="2" points="59.7369,-583.6378 49.5959,-580.57 55.6104,-589.2922 59.7369,-583.6378"/>
</g>
<!-- 9&#45;&gt;4 -->
<g id="edge50" class="edge">
<title>9&#45;&gt;4</title>
<path fill="none" stroke="#a2cd5a" stroke-width="2" d="M864.6663,-1165.9543C830.6064,-1113.8531 729.2871,-958.6871 646.0114,-829.3345 510.1357,-618.2778 347.57,-362.0762 297.6757,-283.3597"/>
<polygon fill="#a2cd5a" stroke="#a2cd5a" stroke-width="2" points="300.4684,-281.2279 292.1589,-274.6549 294.5558,-284.9751 300.4684,-281.2279"/>
</g>
<!-- 9&#45;&gt;11 -->
<g id="edge51" class="edge">
<title>9&#45;&gt;11</title>
<path fill="none" stroke="#a2cd5a" stroke-width="2" d="M858.3266,-1188.392C828.7507,-1195.542 769.9474,-1209.7578 734.9622,-1218.2155"/>
<polygon fill="#a2cd5a" stroke="#a2cd5a" stroke-width="2" points="733.8257,-1214.8894 724.9281,-1220.6413 735.4706,-1221.6934 733.8257,-1214.8894"/>
</g>
<!-- 9&#45;&gt;20 -->
<g id="edge52" class="edge">
<title>9&#45;&gt;20</title>
<path fill="none" stroke="#a2cd5a" stroke-width="2" d="M876.5559,-1165.7928C876.8826,-1091.3448 878.0067,-802.858 876.9732,-565.584 876.7824,-521.7752 875.0738,-510.8163 876.0347,-467.0176 877.6902,-391.5507 883.4663,-302.7131 886.6101,-258.3844"/>
<polygon fill="#a2cd5a" stroke="#a2cd5a" stroke-width="2" points="890.1047,-258.5847 887.3303,-248.3596 883.1227,-258.083 890.1047,-258.5847"/>
</g>
<!-- 10 -->
<g id="node10" class="node">
<title>10</title>
<polygon fill="#a2cd5a" stroke="#a2cd5a" points="846.8353,-1013.6713 810.8353,-1013.6713 810.8353,-977.6713 846.8353,-977.6713 846.8353,-1013.6713"/>
<text text-anchor="middle" x="828.8353" y="-992.6713" font-family="Times,serif" font-size="10.00" fill="#000000">MEC_3</text>
</g>
<!-- 10&#45;&gt;4 -->
<g id="edge53" class="edge">
<title>10&#45;&gt;4</title>
<path fill="none" stroke="#a2cd5a" stroke-width="2" d="M817.1923,-977.5376C793.6026,-940.9861 738.1741,-856.0529 688.4114,-786.9345 543.9975,-586.3491 357.5798,-352.7035 300.0554,-281.1375"/>
<polygon fill="#a2cd5a" stroke="#a2cd5a" stroke-width="2" points="302.6862,-278.824 293.6906,-273.2266 297.2322,-283.212 302.6862,-278.824"/>
</g>
<!-- 10&#45;&gt;6 -->
<g id="edge54" class="edge">
<title>10&#45;&gt;6</title>
<path fill="none" stroke="#a2cd5a" stroke-width="2" d="M810.6487,-980.1767C777.1549,-951.4137 703.8546,-887.4008 646.0114,-829.3345 544.3055,-727.2362 431.665,-596.385 388.5047,-545.5266"/>
<polygon fill="#a2cd5a" stroke="#a2cd5a" stroke-width="2" points="391.0903,-543.1639 381.9563,-537.7952 385.7487,-547.6881 391.0903,-543.1639"/>
</g>
<!-- 10&#45;&gt;8 -->
<g id="edge55" class="edge">
<title>10&#45;&gt;8</title>
<path fill="none" stroke="#a2cd5a" stroke-width="2" d="M810.5916,-979.4819C710.962,-891.0715 233.2287,-467.1351 126.5768,-372.4931"/>
<polygon fill="#a2cd5a" stroke="#a2cd5a" stroke-width="2" points="128.8128,-369.798 119.0101,-365.7785 124.1667,-375.0338 128.8128,-369.798"/>
</g>
<!-- 10&#45;&gt;11 -->
<g id="edge56" class="edge">
<title>10&#45;&gt;11</title>
<path fill="none" stroke="#a2cd5a" stroke-width="2" d="M819.064,-1014.0503C797.6536,-1054.3214 746.5126,-1150.5129 721.3695,-1197.8046"/>
<polygon fill="#a2cd5a" stroke="#a2cd5a" stroke-width="2" points="718.1654,-1196.3756 716.5614,-1206.8484 724.3462,-1199.6617 718.1654,-1196.3756"/>
</g>
<!-- 17 -->
<g id="node17" class="node">
<title>17</title>
<polygon fill="#a2cd5a" stroke="#a2cd5a" points="97.1682,-1278.1444 61.1682,-1278.1444 61.1682,-1242.1444 97.1682,-1242.1444 97.1682,-1278.1444"/>
<text text-anchor="middle" x="79.1682" y="-1257.1444" font-family="Times,serif" font-size="10.00" fill="#000000">PRC</text>
</g>
<!-- 10&#45;&gt;17 -->
<g id="edge57" class="edge">
<title>10&#45;&gt;17</title>
<path fill="none" stroke="#a2cd5a" stroke-width="2" d="M810.6118,-1000.3044C775.4595,-1009.3621 695.9574,-1030.4336 630.2795,-1052.1231 426.7975,-1119.3208 187.1988,-1215.8798 106.9309,-1248.7157"/>
<polygon fill="#a2cd5a" stroke="#a2cd5a" stroke-width="2" points="105.4473,-1245.5411 97.5214,-1252.5719 108.1018,-1252.0183 105.4473,-1245.5411"/>
</g>
<!-- 10&#45;&gt;20 -->
<g id="edge58" class="edge">
<title>10&#45;&gt;20</title>
<path fill="none" stroke="#a2cd5a" stroke-width="2" d="M831.6993,-977.2921C840.7783,-917.9151 868.8005,-725.7872 876.9732,-565.584 879.2052,-521.8316 875.0738,-510.8163 876.0347,-467.0176 877.6902,-391.5507 883.4663,-302.7131 886.6101,-258.3844"/>
<polygon fill="#a2cd5a" stroke="#a2cd5a" stroke-width="2" points="890.1047,-258.5847 887.3303,-248.3596 883.1227,-258.083 890.1047,-258.5847"/>
</g>
<!-- 26 -->
<g id="node22" class="node">
<title>26</title>
<polygon fill="#d8bfd8" stroke="#d8bfd8" points="606.1235,-502.1544 597.1235,-520.1544 579.1235,-520.1544 570.1235,-502.1544 579.1235,-484.1544 597.1235,-484.1544 606.1235,-502.1544"/>
<text text-anchor="middle" x="588.1235" y="-499.1544" font-family="Times,serif" font-size="10.00" fill="#000000">CLA</text>
</g>
<!-- 10&#45;&gt;26 -->
<g id="edge59" class="edge">
<title>10&#45;&gt;26</title>
<path fill="none" stroke="#a2cd5a" stroke-width="2" d="M818.3678,-977.3673C807.4542,-958.1065 790.0131,-926.822 775.9607,-899.2783 706.0677,-762.2832 629.7382,-594.71 600.4775,-529.7299"/>
<polygon fill="#a2cd5a" stroke="#a2cd5a" stroke-width="2" points="603.6438,-528.2369 596.3506,-520.5518 597.2595,-531.1076 603.6438,-528.2369"/>
</g>
<!-- 12 -->
<g id="node12" class="node">
<title>12</title>
<polygon fill="#a2cd5a" stroke="#a2cd5a" points="685.2114,-826.1345 649.2114,-826.1345 649.2114,-790.1345 685.2114,-790.1345 685.2114,-826.1345"/>
<text text-anchor="middle" x="667.2114" y="-805.1345" font-family="Times,serif" font-size="10.00" fill="#000000">LEC_2</text>
</g>
<!-- 12&#45;&gt;1 -->
<g id="edge62" class="edge">
<title>12&#45;&gt;1</title>
<path fill="none" stroke="#a2cd5a" stroke-width="2" d="M650.3099,-790.1332C600.8438,-737.4855 451.9792,-579.3108 327.0984,-449.3421 278.6556,-398.9257 221.1641,-340.1705 191.2717,-309.7013"/>
<polygon fill="#a2cd5a" stroke="#a2cd5a" stroke-width="2" points="193.4479,-306.9219 183.9453,-302.2367 188.4521,-311.8252 193.4479,-306.9219"/>
</g>
<!-- 12&#45;&gt;2 -->
<g id="edge63" class="edge">
<title>12&#45;&gt;2</title>
<path fill="none" stroke="#a2cd5a" stroke-width="2" d="M649.2052,-797.061C581.5849,-755.4758 342.7582,-608.6021 265.8729,-561.3191"/>
<polygon fill="#a2cd5a" stroke="#a2cd5a" stroke-width="2" points="267.6734,-558.3176 257.3218,-556.0604 264.0064,-564.2803 267.6734,-558.3176"/>
</g>
<!-- 12&#45;&gt;3 -->
<g id="edge64" class="edge">
<title>12&#45;&gt;3</title>
<path fill="none" stroke="#a2cd5a" stroke-width="2" d="M648.9693,-801.2598C559.6094,-767.5839 168.0888,-620.0364 61.6726,-579.9327"/>
<polygon fill="#a2cd5a" stroke="#a2cd5a" stroke-width="2" points="62.6037,-576.5434 52.0119,-576.292 60.1352,-583.0937 62.6037,-576.5434"/>
</g>
<!-- 12&#45;&gt;4 -->
<g id="edge65" class="edge">
<title>12&#45;&gt;4</title>
<path fill="none" stroke="#a2cd5a" stroke-width="2" d="M654.4071,-789.8706C596.9148,-707.8643 362.638,-373.6952 298.61,-282.3665"/>
<polygon fill="#a2cd5a" stroke="#a2cd5a" stroke-width="2" points="301.3992,-280.248 292.7928,-274.069 295.6675,-284.2664 301.3992,-280.248"/>
</g>
<!-- 12&#45;&gt;14 -->
<g id="edge66" class="edge">
<title>12&#45;&gt;14</title>
<path fill="none" stroke="#a2cd5a" stroke-width="2" d="M685.2803,-817.8599C707.1714,-829.6425 744.2729,-849.612 769.7061,-863.3012"/>
<polygon fill="#a2cd5a" stroke="#a2cd5a" stroke-width="2" points="768.3619,-866.5524 778.8263,-868.21 771.6796,-860.3886 768.3619,-866.5524"/>
</g>
<!-- 12&#45;&gt;20 -->
<g id="edge67" class="edge">
<title>12&#45;&gt;20</title>
<path fill="none" stroke="#a2cd5a" stroke-width="2" d="M672.8171,-789.9672C688.0622,-740.9642 732.0712,-602.1535 775.8026,-489.2761 808.9741,-403.6555 853.9891,-304.7614 875.7929,-257.7814"/>
<polygon fill="#a2cd5a" stroke="#a2cd5a" stroke-width="2" points="879.0346,-259.1108 880.0807,-248.5678 872.6882,-256.1573 879.0346,-259.1108"/>
</g>
<!-- 13 -->
<g id="node13" class="node">
<title>13</title>
<polygon fill="#a2cd5a" stroke="#a2cd5a" points="836.2823,-829.4632 800.2823,-829.4632 800.2823,-793.4632 836.2823,-793.4632 836.2823,-829.4632"/>
<text text-anchor="middle" x="818.2823" y="-808.4632" font-family="Times,serif" font-size="10.00" fill="#000000">LEC_3</text>
</g>
<!-- 13&#45;&gt;4 -->
<g id="edge68" class="edge">
<title>13&#45;&gt;4</title>
<path fill="none" stroke="#a2cd5a" stroke-width="2" d="M800.7562,-793.4025C720.3821,-710.5765 387.3304,-367.3649 302.2373,-279.6761"/>
<polygon fill="#a2cd5a" stroke="#a2cd5a" stroke-width="2" points="304.6999,-277.188 295.2241,-272.4489 299.6764,-282.0629 304.6999,-277.188"/>
</g>
<!-- 13&#45;&gt;5 -->
<g id="edge69" class="edge">
<title>13&#45;&gt;5</title>
<path fill="none" stroke="#a2cd5a" stroke-width="2" d="M800.1865,-798.6849C740.8555,-756.8352 546.7051,-620.2572 384.1821,-510.1066 368.5212,-499.4924 350.7708,-487.7496 336.9331,-478.6588"/>
<polygon fill="#a2cd5a" stroke="#a2cd5a" stroke-width="2" points="338.7478,-475.6633 328.4661,-473.1063 334.9091,-481.517 338.7478,-475.6633"/>
</g>
<!-- 13&#45;&gt;7 -->
<g id="edge70" class="edge">
<title>13&#45;&gt;7</title>
<path fill="none" stroke="#a2cd5a" stroke-width="2" d="M800.2109,-802.2865C715.978,-759.1407 354.8809,-570.05 91.4365,-367.4511 78.7126,-357.6659 65.4158,-345.6503 54.855,-335.6203"/>
<polygon fill="#a2cd5a" stroke="#a2cd5a" stroke-width="2" points="56.9975,-332.8244 47.3673,-328.4073 52.141,-337.8657 56.9975,-332.8244"/>
</g>
<!-- 13&#45;&gt;14 -->
<g id="edge71" class="edge">
<title>13&#45;&gt;14</title>
<path fill="none" stroke="#a2cd5a" stroke-width="2" d="M812.5107,-829.666C810.5083,-835.9813 808.2145,-843.2157 806.0212,-850.1332"/>
<polygon fill="#a2cd5a" stroke="#a2cd5a" stroke-width="2" points="802.6114,-849.3072 802.9253,-859.8974 809.284,-851.423 802.6114,-849.3072"/>
</g>
<!-- 13&#45;&gt;16 -->
<g id="edge72" class="edge">
<title>13&#45;&gt;16</title>
<path fill="none" stroke="#a2cd5a" stroke-width="2" d="M800.0355,-826.4529C720.8658,-891.4907 406.9319,-1149.3871 314.1496,-1225.6077"/>
<polygon fill="#a2cd5a" stroke="#a2cd5a" stroke-width="2" points="311.8709,-1222.9499 306.3656,-1232.0022 316.3144,-1228.3589 311.8709,-1222.9499"/>
</g>
<!-- 13&#45;&gt;26 -->
<g id="edge73" class="edge">
<title>13&#45;&gt;26</title>
<path fill="none" stroke="#a2cd5a" stroke-width="2" d="M804.5741,-793.0408C764.7164,-739.4764 648.9229,-583.8624 605.1514,-525.0381"/>
<polygon fill="#a2cd5a" stroke="#a2cd5a" stroke-width="2" points="607.7775,-522.7043 598.9998,-516.771 602.1616,-526.8831 607.7775,-522.7043"/>
</g>
<!-- 14&#45;&gt;20 -->
<g id="edge76" class="edge">
<title>14&#45;&gt;20</title>
<path fill="none" stroke="#a2cd5a" stroke-width="2" d="M796.2774,-859.8796C795.6186,-842.0957 795.1316,-814.2722 797.0823,-790.2632 813.8034,-584.4623 864.5466,-340.2782 882.3955,-258.506"/>
<polygon fill="#a2cd5a" stroke="#a2cd5a" stroke-width="2" points="885.8681,-259.0101 884.5947,-248.4921 879.0311,-257.5086 885.8681,-259.0101"/>
</g>
<!-- 15&#45;&gt;11 -->
<g id="edge77" class="edge">
<title>15&#45;&gt;11</title>
<path fill="none" stroke="#a2cd5a" stroke-width="2" d="M658.166,-1091.6185C667.7384,-1117.81 685.4296,-1166.2155 696.6619,-1196.9488"/>
<polygon fill="#a2cd5a" stroke="#a2cd5a" stroke-width="2" points="693.4824,-1198.4454 700.2025,-1206.6363 700.057,-1196.0425 693.4824,-1198.4454"/>
</g>
<!-- 29 -->
<g id="node25" class="node">
<title>29</title>
<polygon fill="#d8bfd8" stroke="#d8bfd8" points="836.324,-151.3757 827.324,-169.3757 809.324,-169.3757 800.324,-151.3757 809.324,-133.3757 827.324,-133.3757 836.324,-151.3757"/>
<text text-anchor="middle" x="818.324" y="-148.3757" font-family="Times,serif" font-size="10.00" fill="#000000">mMB</text>
</g>
<!-- 15&#45;&gt;29 -->
<g id="edge78" class="edge">
<title>15&#45;&gt;29</title>
<path fill="none" stroke="#a2cd5a" stroke-width="2" d="M654.7374,-1055.3202C675.3757,-941.2777 787.8814,-319.5951 813.2436,-179.4493"/>
<polygon fill="#a2cd5a" stroke="#a2cd5a" stroke-width="2" points="816.7084,-179.9574 815.0452,-169.4939 809.8203,-178.7108 816.7084,-179.9574"/>
</g>
<!-- 15&#45;&gt;25 -->
<g id="edge79" class="edge">
<title>15&#45;&gt;25</title>
<path fill="none" stroke="#a2cd5a" stroke-width="2" d="M633.3746,-1075.2804C594.2169,-1079.404 498.7007,-1088.87 418.3772,-1092.0998 402.1223,-1092.7535 395.9803,-1095.5953 377.4199,-1091.6122"/>
<polygon fill="#a2cd5a" stroke="#a2cd5a" stroke-width="2" points="378.1262,-1088.1814 367.5776,-1089.1705 376.4406,-1094.9755 378.1262,-1088.1814"/>
</g>
<!-- 16&#45;&gt;14 -->
<g id="edge81" class="edge">
<title>16&#45;&gt;14</title>
<path fill="none" stroke="#a2cd5a" stroke-width="2" d="M306.3099,-1233.8012C382.8296,-1178.3469 679.8121,-963.1216 770.6275,-897.307"/>
<polygon fill="#a2cd5a" stroke="#a2cd5a" stroke-width="2" points="772.9549,-899.9429 778.9983,-891.2407 768.8472,-894.2748 772.9549,-899.9429"/>
</g>
<!-- 16&#45;&gt;17 -->
<g id="edge82" class="edge">
<title>16&#45;&gt;17</title>
<path fill="none" stroke="#a2cd5a" stroke-width="2" d="M270.0114,-1248.0785C233.568,-1250.3826 151.3516,-1255.5807 107.6803,-1258.3417"/>
<polygon fill="#a2cd5a" stroke="#a2cd5a" stroke-width="2" points="107.2184,-1254.8639 97.4592,-1258.988 107.6601,-1261.8499 107.2184,-1254.8639"/>
</g>
<!-- 16&#45;&gt;28 -->
<g id="edge83" class="edge">
<title>16&#45;&gt;28</title>
<path fill="none" stroke="#a2cd5a" stroke-width="2" d="M304.1795,-1228.6279C329.093,-1199.9465 378.4671,-1142.4736 418.3772,-1092.0998 523.4539,-959.4739 543.1665,-921.2985 646.0114,-786.9345 732.6162,-673.7878 838.7619,-540.2668 879.8481,-488.7731"/>
<polygon fill="#a2cd5a" stroke="#a2cd5a" stroke-width="2" points="882.587,-490.9522 886.0905,-480.9534 877.1163,-486.5851 882.587,-490.9522"/>
</g>
<!-- 17&#45;&gt;8 -->
<g id="edge84" class="edge">
<title>17&#45;&gt;8</title>
<path fill="none" stroke="#a2cd5a" stroke-width="2" d="M79.6929,-1242.0384C82.9661,-1129.0746 100.5765,-521.3119 104.6093,-382.1359"/>
<polygon fill="#a2cd5a" stroke="#a2cd5a" stroke-width="2" points="108.1153,-381.9761 104.9065,-371.8789 101.1182,-381.7733 108.1153,-381.9761"/>
</g>
<!-- 17&#45;&gt;11 -->
<g id="edge85" class="edge">
<title>17&#45;&gt;11</title>
<path fill="none" stroke="#a2cd5a" stroke-width="2" d="M97.2919,-1261.1711C130.7909,-1263.0118 204.6704,-1266.8047 266.9956,-1268.1288 422.846,-1271.4399 608.3474,-1242.3393 678.3175,-1230.1789"/>
<polygon fill="#a2cd5a" stroke="#a2cd5a" stroke-width="2" points="679.2915,-1233.5613 688.5331,-1228.3802 678.0776,-1226.6673 679.2915,-1233.5613"/>
</g>
<!-- 17&#45;&gt;25 -->
<g id="edge87" class="edge">
<title>17&#45;&gt;25</title>
<path fill="none" stroke="#a2cd5a" stroke-width="2" d="M97.3257,-1247.9391C143.9769,-1216.5806 268.2013,-1133.0782 322.9553,-1096.2731"/>
<polygon fill="#a2cd5a" stroke="#a2cd5a" stroke-width="2" points="325.0818,-1099.0609 331.4286,-1090.5775 321.1767,-1093.2514 325.0818,-1099.0609"/>
</g>
<!-- 18&#45;&gt;19 -->
<g id="edge88" class="edge">
<title>18&#45;&gt;19</title>
<path fill="none" stroke="#d8bfd8" stroke-width="2" d="M613.4046,-140.3709C604.2856,-157.3024 590.3641,-183.1506 579.8907,-202.5966"/>
<polygon fill="#d8bfd8" stroke="#d8bfd8" stroke-width="2" points="576.7228,-201.0976 575.0623,-211.5615 582.8857,-204.4169 576.7228,-201.0976"/>
</g>
<!-- 19&#45;&gt;1 -->
<g id="edge89" class="edge">
<title>19&#45;&gt;1</title>
<path fill="none" stroke="#d8bfd8" stroke-width="2" d="M549.0613,-232.5359C505.567,-241.3468 384.2646,-265.2286 282.3057,-278.8042 254.1864,-282.5483 221.888,-285.3367 199.3382,-287.0409"/>
<polygon fill="#d8bfd8" stroke="#d8bfd8" stroke-width="2" points="198.83,-283.5687 189.1124,-287.7899 199.3413,-290.55 198.83,-283.5687"/>
</g>
<!-- 19&#45;&gt;2 -->
<g id="edge90" class="edge">
<title>19&#45;&gt;2</title>
<path fill="none" stroke="#d8bfd8" stroke-width="2" d="M553.9406,-242.319C520.2057,-280.2191 418.9849,-392.2487 326.9416,-477.0603 306.5698,-495.8315 281.9208,-515.6652 264.4045,-529.3142"/>
<polygon fill="#d8bfd8" stroke="#d8bfd8" stroke-width="2" points="262.1953,-526.5982 256.4285,-535.4861 266.4792,-532.1343 262.1953,-526.5982"/>
</g>
<!-- 19&#45;&gt;3 -->
<g id="edge91" class="edge">
<title>19&#45;&gt;3</title>
<path fill="none" stroke="#d8bfd8" stroke-width="2" d="M551.9395,-237.9107C480.6503,-283.6766 150.8987,-495.3691 58.828,-554.4763"/>
<polygon fill="#d8bfd8" stroke="#d8bfd8" stroke-width="2" points="56.7274,-551.6656 50.203,-560.0133 60.509,-557.5562 56.7274,-551.6656"/>
</g>
<!-- 19&#45;&gt;4 -->
<g id="edge92" class="edge">
<title>19&#45;&gt;4</title>
<path fill="none" stroke="#d8bfd8" stroke-width="2" d="M548.3009,-230.9816C500.9276,-236.0093 368.711,-250.0413 310.4966,-256.2195"/>
<polygon fill="#d8bfd8" stroke="#d8bfd8" stroke-width="2" points="310.0998,-252.7418 300.525,-257.2777 310.8386,-259.7027 310.0998,-252.7418"/>
</g>
<!-- 19&#45;&gt;20 -->
<g id="edge97" class="edge">
<title>19&#45;&gt;20</title>
<path fill="none" stroke="#d8bfd8" stroke-width="2" d="M583.888,-229.2094C637.6465,-229.3939 795.3973,-229.9352 860.2978,-230.1579"/>
<polygon fill="#d8bfd8" stroke="#d8bfd8" stroke-width="2" points="860.5792,-233.6587 870.5912,-230.1932 860.6033,-226.6588 860.5792,-233.6587"/>
</g>
<!-- 21 -->
<g id="node21" class="node">
<title>21</title>
<polygon fill="#d8bfd8" stroke="#d8bfd8" points="815.0026,-489.2761 806.0026,-507.2761 788.0026,-507.2761 779.0026,-489.2761 788.0026,-471.2761 806.0026,-471.2761 815.0026,-489.2761"/>
<text text-anchor="middle" x="797.0026" y="-486.2761" font-family="Times,serif" font-size="10.00" fill="#000000">AT</text>
</g>
<!-- 19&#45;&gt;21 -->
<g id="edge98" class="edge">
<title>19&#45;&gt;21</title>
<path fill="none" stroke="#d8bfd8" stroke-width="2" d="M577.3851,-242.4041C615.066,-284.7612 732.7504,-417.0503 778.5264,-468.507"/>
<polygon fill="#d8bfd8" stroke="#d8bfd8" stroke-width="2" points="775.9708,-470.9002 785.2325,-476.0453 781.2008,-466.2475 775.9708,-470.9002"/>
</g>
<!-- 19&#45;&gt;29 -->
<g id="edge99" class="edge">
<title>19&#45;&gt;29</title>
<path fill="none" stroke="#d8bfd8" stroke-width="2" d="M581.4008,-224.2817C623.8628,-211.2153 740.6903,-175.2651 792.7323,-159.2507"/>
<polygon fill="#d8bfd8" stroke="#d8bfd8" stroke-width="2" points="793.9921,-162.5251 802.5205,-156.2387 791.9333,-155.8347 793.9921,-162.5251"/>
</g>
<!-- 19&#45;&gt;22 -->
<g id="edge100" class="edge">
<title>19&#45;&gt;22</title>
<path fill="none" stroke="#d8bfd8" stroke-width="2" d="M554.4947,-243.6174C522.9476,-284.8498 430.2581,-406.6401 356.4635,-510.1061 242.8434,-669.4106 112.288,-864.8406 65.4225,-935.4093"/>
<polygon fill="#d8bfd8" stroke="#d8bfd8" stroke-width="2" points="62.2386,-933.8773 59.6252,-944.1448 68.0711,-937.748 62.2386,-933.8773"/>
</g>
<!-- 19&#45;&gt;25 -->
<g id="edge101" class="edge">
<title>19&#45;&gt;25</title>
<path fill="none" stroke="#d8bfd8" stroke-width="2" d="M560.978,-247.2779C533.4058,-355.6456 390.4538,-917.4915 356.669,-1050.2766"/>
<polygon fill="#d8bfd8" stroke="#d8bfd8" stroke-width="2" points="353.2427,-1049.5487 354.1688,-1060.103 360.0266,-1051.2748 353.2427,-1049.5487"/>
</g>
<!-- 20&#45;&gt;21 -->
<g id="edge102" class="edge">
<title>20&#45;&gt;21</title>
<path fill="none" stroke="#d8bfd8" stroke-width="2" d="M882.2402,-248.4691C866.4253,-293.148 825.6308,-408.3979 806.7977,-461.6038"/>
<polygon fill="#d8bfd8" stroke="#d8bfd8" stroke-width="2" points="803.48,-460.4876 803.4426,-471.0824 810.0788,-462.8234 803.48,-460.4876"/>
</g>
<!-- 20&#45;&gt;25 -->
<g id="edge103" class="edge">
<title>20&#45;&gt;25</title>
<path fill="none" stroke="#d8bfd8" stroke-width="2" d="M878.3979,-246.4412C812.4989,-350.1052 449.7593,-920.7211 366.5303,-1051.6464"/>
<polygon fill="#d8bfd8" stroke="#d8bfd8" stroke-width="2" points="363.4399,-1049.9839 361.0288,-1060.3007 369.3473,-1053.7392 363.4399,-1049.9839"/>
</g>
<!-- 21&#45;&gt;15 -->
<g id="edge104" class="edge">
<title>21&#45;&gt;15</title>
<path fill="none" stroke="#d8bfd8" stroke-width="2" d="M792.4878,-507.3959C771.5678,-591.3567 683.9975,-942.8143 658.4834,-1045.2134"/>
<polygon fill="#d8bfd8" stroke="#d8bfd8" stroke-width="2" points="655.0351,-1044.5767 656.0134,-1055.1263 661.8274,-1046.2692 655.0351,-1044.5767"/>
</g>
<!-- 23 -->
<g id="node27" class="node">
<title>23</title>
<polygon fill="#add8e6" stroke="#add8e6" points="231.3407,-1038.5747 195.3407,-1038.5747 195.3407,-1002.5747 231.3407,-1002.5747 231.3407,-1038.5747"/>
<text text-anchor="middle" x="213.3407" y="-1017.5747" font-family="Times,serif" font-size="10.00" fill="#000000">ACC</text>
</g>
<!-- 21&#45;&gt;23 -->
<g id="edge105" class="edge">
<title>21&#45;&gt;23</title>
<path fill="none" stroke="#d8bfd8" stroke-width="2" d="M784.542,-500.6188C711.6754,-566.9481 340.4754,-904.8458 239.0051,-997.2127"/>
<polygon fill="#d8bfd8" stroke="#d8bfd8" stroke-width="2" points="236.405,-994.8466 231.3661,-1004.1664 241.1172,-1000.0231 236.405,-994.8466"/>
</g>
<!-- 21&#45;&gt;25 -->
<g id="edge106" class="edge">
<title>21&#45;&gt;25</title>
<path fill="none" stroke="#d8bfd8" stroke-width="2" d="M785.9408,-503.8394C726.7632,-581.7496 447.3681,-949.5865 369.625,-1051.939"/>
<polygon fill="#d8bfd8" stroke="#d8bfd8" stroke-width="2" points="366.6132,-1050.1177 363.3517,-1060.1981 372.1876,-1054.3518 366.6132,-1050.1177"/>
</g>
<!-- 26&#45;&gt;5 -->
<g id="edge107" class="edge">
<title>26&#45;&gt;5</title>
<path fill="none" stroke="#d8bfd8" stroke-width="2" d="M570.9233,-499.7128C524.7545,-493.159 397.7773,-475.1343 341.1067,-467.0898"/>
<polygon fill="#d8bfd8" stroke="#d8bfd8" stroke-width="2" points="341.4588,-463.6048 331.0661,-465.6645 340.4749,-470.5353 341.4588,-463.6048"/>
</g>
<!-- 26&#45;&gt;6 -->
<g id="edge108" class="edge">
<title>26&#45;&gt;6</title>
<path fill="none" stroke="#d8bfd8" stroke-width="2" d="M570.6681,-503.9024C533.1003,-507.6646 444.293,-516.558 398.5856,-521.1353"/>
<polygon fill="#d8bfd8" stroke="#d8bfd8" stroke-width="2" points="398.0738,-517.6689 388.4724,-522.1481 398.7714,-524.6341 398.0738,-517.6689"/>
</g>
<!-- 26&#45;&gt;11 -->
<g id="edge109" class="edge">
<title>26&#45;&gt;11</title>
<path fill="none" stroke="#d8bfd8" stroke-width="2" d="M591.1192,-520.384C607.1354,-617.8433 682.6563,-1077.3943 702.2564,-1196.6624"/>
<polygon fill="#d8bfd8" stroke="#d8bfd8" stroke-width="2" points="698.8497,-1197.5161 703.925,-1206.8162 705.757,-1196.381 698.8497,-1197.5161"/>
</g>
<!-- 26&#45;&gt;14 -->
<g id="edge110" class="edge">
<title>26&#45;&gt;14</title>
<path fill="none" stroke="#d8bfd8" stroke-width="2" d="M597.6485,-519.2839C630.823,-578.9434 741.4719,-777.9298 782.0634,-850.928"/>
<polygon fill="#d8bfd8" stroke="#d8bfd8" stroke-width="2" points="779.175,-852.9357 787.0938,-859.9744 785.2928,-849.5338 779.175,-852.9357"/>
</g>
<!-- 27 -->
<g id="node23" class="node">
<title>27</title>
<polygon fill="#d8bfd8" stroke="#d8bfd8" points="873.7732,-565.584 864.7732,-583.584 846.7732,-583.584 837.7732,-565.584 846.7732,-547.584 864.7732,-547.584 873.7732,-565.584"/>
<text text-anchor="middle" x="855.7732" y="-562.584" font-family="Times,serif" font-size="10.00" fill="#000000">Re</text>
</g>
<!-- 26&#45;&gt;27 -->
<g id="edge111" class="edge">
<title>26&#45;&gt;27</title>
<path fill="none" stroke="#d8bfd8" stroke-width="2" d="M604.4632,-506.0267C649.3657,-516.668 774.9258,-546.4242 829.6844,-559.4013"/>
<polygon fill="#d8bfd8" stroke="#d8bfd8" stroke-width="2" points="829.1096,-562.862 839.6473,-561.7624 830.7239,-556.0506 829.1096,-562.862"/>
</g>
<!-- 26&#45;&gt;28 -->
<g id="edge112" class="edge">
<title>26&#45;&gt;28</title>
<path fill="none" stroke="#d8bfd8" stroke-width="2" d="M604.4751,-498.4832C638.2686,-491.0942 718.3554,-474.6054 786.5715,-468.4139 814.5269,-465.8766 846.6153,-465.7805 869.0152,-466.1657"/>
<polygon fill="#d8bfd8" stroke="#d8bfd8" stroke-width="2" points="869.0994,-469.6682 879.1726,-466.3849 869.2505,-462.6699 869.0994,-469.6682"/>
</g>
<!-- 26&#45;&gt;22 -->
<g id="edge113" class="edge">
<title>26&#45;&gt;22</title>
<path fill="none" stroke="#d8bfd8" stroke-width="2" d="M575.2935,-513.0779C505.3796,-572.6035 169.9579,-858.1858 73.515,-940.2985"/>
<polygon fill="#d8bfd8" stroke="#d8bfd8" stroke-width="2" points="71.049,-937.8014 65.7038,-946.9491 75.5869,-943.1312 71.049,-937.8014"/>
</g>
<!-- 26&#45;&gt;23 -->
<g id="edge114" class="edge">
<title>26&#45;&gt;23</title>
<path fill="none" stroke="#d8bfd8" stroke-width="2" d="M577.3111,-517.1106C525.223,-589.1617 299.9201,-900.8132 232.482,-994.0973"/>
<polygon fill="#d8bfd8" stroke="#d8bfd8" stroke-width="2" points="229.4819,-992.2731 226.4596,-1002.4278 235.1548,-996.3743 229.4819,-992.2731"/>
</g>
<!-- 27&#45;&gt;5 -->
<g id="edge115" class="edge">
<title>27&#45;&gt;5</title>
<path fill="none" stroke="#d8bfd8" stroke-width="2" d="M838.7736,-563.4084C795.2069,-557.7404 676.0642,-541.6579 577.6924,-523.0165 490.5937,-506.5114 388.5382,-481.8909 340.6281,-470.0171"/>
<polygon fill="#d8bfd8" stroke="#d8bfd8" stroke-width="2" points="341.266,-466.5692 330.7168,-467.5509 339.5757,-473.3621 341.266,-466.5692"/>
</g>
<!-- 27&#45;&gt;6 -->
<g id="edge116" class="edge">
<title>27&#45;&gt;6</title>
<path fill="none" stroke="#d8bfd8" stroke-width="2" d="M838.4957,-564.1028C766.2703,-557.9108 488.1183,-534.0644 398.3955,-526.3724"/>
<polygon fill="#d8bfd8" stroke="#d8bfd8" stroke-width="2" points="398.6768,-522.8837 388.4143,-525.5167 398.0788,-529.8582 398.6768,-522.8837"/>
</g>
<!-- 27&#45;&gt;7 -->
<g id="edge117" class="edge">
<title>27&#45;&gt;7</title>
<path fill="none" stroke="#d8bfd8" stroke-width="2" d="M840.1613,-560.3077C800.1265,-546.8121 690.4896,-510.0738 598.5545,-481.2922 380.3631,-412.9842 325.726,-396.0154 105.6265,-334.1307 91.2299,-330.0829 75.1267,-325.8108 61.8698,-322.3614"/>
<polygon fill="#d8bfd8" stroke="#d8bfd8" stroke-width="2" points="62.4932,-318.9075 51.9353,-319.7914 60.74,-325.6844 62.4932,-318.9075"/>
</g>
<!-- 27&#45;&gt;8 -->
<g id="edge118" class="edge">
<title>27&#45;&gt;8</title>
<path fill="none" stroke="#d8bfd8" stroke-width="2" d="M840.2228,-560.1047C800.3323,-546.1327 691.0061,-508.3688 598.5545,-481.2922 422.6259,-429.7674 208.2608,-378.0415 133.0749,-360.2275"/>
<polygon fill="#d8bfd8" stroke="#d8bfd8" stroke-width="2" points="133.5498,-356.7434 123.0129,-357.8493 131.9397,-363.5557 133.5498,-356.7434"/>
</g>
<!-- 27&#45;&gt;22 -->
<g id="edge120" class="edge">
<title>27&#45;&gt;22</title>
<path fill="none" stroke="#d8bfd8" stroke-width="2" d="M841.0546,-572.8107C744.6135,-620.1624 202.9375,-886.1202 74.7317,-949.0681"/>
<polygon fill="#d8bfd8" stroke="#d8bfd8" stroke-width="2" points="73.0025,-946.0179 65.5686,-953.567 76.0876,-952.3014 73.0025,-946.0179"/>
</g>
<!-- 27&#45;&gt;23 -->
<g id="edge121" class="edge">
<title>27&#45;&gt;23</title>
<path fill="none" stroke="#d8bfd8" stroke-width="2" d="M842.3551,-575.0872C762.4442,-631.6825 349.0283,-924.4764 239.8215,-1001.8201"/>
<polygon fill="#d8bfd8" stroke="#d8bfd8" stroke-width="2" points="237.7689,-998.9849 231.6311,-1007.6208 241.8147,-1004.6974 237.7689,-998.9849"/>
</g>
<!-- 28&#45;&gt;15 -->
<g id="edge122" class="edge">
<title>28&#45;&gt;15</title>
<path fill="none" stroke="#d8bfd8" stroke-width="2" d="M894.7112,-485.1221C891.6485,-505.1233 885.7761,-538.1355 876.9732,-565.584 815.9437,-755.8817 705.9901,-970.744 666.2858,-1045.7491"/>
<polygon fill="#d8bfd8" stroke="#d8bfd8" stroke-width="2" points="662.9764,-1044.5182 661.3735,-1054.9911 669.1575,-1047.8036 662.9764,-1044.5182"/>
</g>
<!-- 28&#45;&gt;20 -->
<g id="edge123" class="edge">
<title>28&#45;&gt;20</title>
<path fill="none" stroke="#d8bfd8" stroke-width="2" d="M896.5782,-448.8324C895.099,-407.86 891.4964,-308.0683 889.7168,-258.7732"/>
<polygon fill="#d8bfd8" stroke="#d8bfd8" stroke-width="2" points="893.2046,-258.3696 889.346,-248.5024 886.2092,-258.6222 893.2046,-258.3696"/>
</g>
<!-- 28&#45;&gt;29 -->
<g id="edge125" class="edge">
<title>28&#45;&gt;29</title>
<path fill="none" stroke="#d8bfd8" stroke-width="2" d="M892.651,-448.683C879.4397,-395.8377 841.2172,-242.9482 825.3537,-179.4941"/>
<polygon fill="#d8bfd8" stroke="#d8bfd8" stroke-width="2" points="828.7413,-178.6134 822.9204,-169.7608 821.9503,-180.3112 828.7413,-178.6134"/>
</g>
<!-- 28&#45;&gt;23 -->
<g id="edge126" class="edge">
<title>28&#45;&gt;23</title>
<path fill="none" stroke="#d8bfd8" stroke-width="2" d="M884.1837,-477.5813C801.7622,-544.2949 353.2474,-907.3315 239.5497,-999.3605"/>
<polygon fill="#d8bfd8" stroke="#d8bfd8" stroke-width="2" points="237.2247,-996.7396 231.6539,-1005.7516 241.6288,-1002.1806 237.2247,-996.7396"/>
</g>
<!-- 28&#45;&gt;25 -->
<g id="edge127" class="edge">
<title>28&#45;&gt;25</title>
<path fill="none" stroke="#d8bfd8" stroke-width="2" d="M885.5412,-480.0706C816.9412,-556.6462 466.5733,-947.7486 372.6815,-1052.5565"/>
<polygon fill="#d8bfd8" stroke="#d8bfd8" stroke-width="2" points="369.9406,-1050.3706 365.875,-1060.1543 375.1545,-1055.0414 369.9406,-1050.3706"/>
</g>
<!-- 29&#45;&gt;25 -->
<g id="edge129" class="edge">
<title>29&#45;&gt;25</title>
<path fill="none" stroke="#d8bfd8" stroke-width="2" d="M809.1695,-169.4782C751.0618,-284.3816 433.7797,-911.7825 363.3571,-1051.0377"/>
<polygon fill="#d8bfd8" stroke="#d8bfd8" stroke-width="2" points="360.1098,-1049.7034 358.7203,-1060.2068 366.3565,-1052.8625 360.1098,-1049.7034"/>
</g>
<!-- 22&#45;&gt;17 -->
<g id="edge130" class="edge">
<title>22&#45;&gt;17</title>
<path fill="none" stroke="#add8e6" stroke-width="2" d="M49.458,-980.6011C54.787,-1030.7412 69.7253,-1171.2954 76.1587,-1231.8275"/>
<polygon fill="#add8e6" stroke="#add8e6" stroke-width="2" points="72.6843,-1232.2544 77.2216,-1241.8285 79.6451,-1231.5146 72.6843,-1232.2544"/>
</g>
<!-- 22&#45;&gt;28 -->
<g id="edge133" class="edge">
<title>22&#45;&gt;28</title>
<path fill="none" stroke="#add8e6" stroke-width="2" d="M65.6668,-951.8491C175.4943,-887.8161 750.8649,-552.356 874.0184,-480.5534"/>
<polygon fill="#add8e6" stroke="#add8e6" stroke-width="2" points="876.1347,-483.3711 883.0107,-475.3106 872.6089,-477.3238 876.1347,-483.3711"/>
</g>
<!-- 22&#45;&gt;29 -->
<g id="edge134" class="edge">
<title>22&#45;&gt;29</title>
<path fill="none" stroke="#add8e6" stroke-width="2" d="M64.7062,-944.3486C166.7684,-836.9565 692.5666,-283.7003 799.3783,-171.3108"/>
<polygon fill="#add8e6" stroke="#add8e6" stroke-width="2" points="801.9812,-173.6526 806.3331,-163.9928 796.9071,-168.8304 801.9812,-173.6526"/>
</g>
<!-- 22&#45;&gt;23 -->
<g id="edge135" class="edge">
<title>22&#45;&gt;23</title>
<path fill="none" stroke="#add8e6" stroke-width="2" d="M65.587,-968.7593C94.4926,-978.8961 151.3578,-998.8381 185.4941,-1010.8092"/>
<polygon fill="#add8e6" stroke="#add8e6" stroke-width="2" points="184.7074,-1014.2423 195.3022,-1014.2488 187.024,-1007.6367 184.7074,-1014.2423"/>
</g>
<!-- 22&#45;&gt;25 -->
<g id="edge136" class="edge">
<title>22&#45;&gt;25</title>
<path fill="none" stroke="#add8e6" stroke-width="2" d="M65.9109,-974.6727C92.6358,-991.9636 144.2621,-1023.4611 192.1407,-1041.7747 235.6887,-1058.4318 289.0249,-1068.909 321.0818,-1074.2094"/>
<polygon fill="#add8e6" stroke="#add8e6" stroke-width="2" points="320.6655,-1077.6872 331.0927,-1075.8099 321.7707,-1070.775 320.6655,-1077.6872"/>
</g>
<!-- 23&#45;&gt;17 -->
<g id="edge137" class="edge">
<title>23&#45;&gt;17</title>
<path fill="none" stroke="#add8e6" stroke-width="2" d="M203.2559,-1038.5813C179.8963,-1080.2908 121.968,-1183.7239 94.3208,-1233.0889"/>
<polygon fill="#add8e6" stroke="#add8e6" stroke-width="2" points="91.2028,-1231.4936 89.37,-1241.9288 97.3102,-1234.9142 91.2028,-1231.4936"/>
</g>
<!-- 23&#45;&gt;25 -->
<g id="edge140" class="edge">
<title>23&#45;&gt;25</title>
<path fill="none" stroke="#add8e6" stroke-width="2" d="M231.4225,-1028.2568C254.6177,-1038.1113 295.0694,-1055.2973 322.0688,-1066.7681"/>
<polygon fill="#add8e6" stroke="#add8e6" stroke-width="2" points="320.778,-1070.0224 331.3504,-1070.7114 323.5152,-1063.5798 320.778,-1070.0224"/>
</g>
<!-- 24 -->
<g id="node28" class="node">
<title>24</title>
<polygon fill="#add8e6" stroke="#add8e6" points="415.1772,-1088.8998 379.1772,-1088.8998 379.1772,-1052.8998 415.1772,-1052.8998 415.1772,-1088.8998"/>
<text text-anchor="middle" x="397.1772" y="-1067.8998" font-family="Times,serif" font-size="10.00" fill="#000000">PCC</text>
</g>
<!-- 24&#45;&gt;22 -->
<g id="edge141" class="edge">
<title>24&#45;&gt;22</title>
<path fill="none" stroke="#add8e6" stroke-width="2" d="M379.0403,-1061.3028C376.2658,-1059.9009 373.4222,-1058.5012 370.707,-1057.2253 311.1964,-1029.2603 297.3885,-1018.7059 234.5407,-999.3747 179.4063,-982.416 112.6581,-971.4221 75.6676,-966.132"/>
<polygon fill="#add8e6" stroke="#add8e6" stroke-width="2" points="76.0104,-962.6461 65.623,-964.7319 75.044,-969.579 76.0104,-962.6461"/>
</g>
<!-- 24&#45;&gt;25 -->
<g id="edge142" class="edge">
<title>24&#45;&gt;25</title>
<path fill="none" stroke="#add8e6" stroke-width="2" d="M379.1551,-1073.7449C378.6805,-1073.8198 378.2027,-1073.8953 377.7224,-1073.9711"/>
<polygon fill="#add8e6" stroke="#add8e6" stroke-width="2" points="376.8864,-1070.5596 367.5545,-1075.5762 377.978,-1077.474 376.8864,-1070.5596"/>
</g>
<!-- 25&#45;&gt;11 -->
<g id="edge143" class="edge">
<title>25&#45;&gt;11</title>
<path fill="none" stroke="#add8e6" stroke-width="2" d="M367.6214,-1088.0709C370.399,-1089.4661 373.2494,-1090.851 375.9772,-1092.0998 486.4368,-1142.6725 621.9879,-1193.795 679.2723,-1214.9134"/>
<polygon fill="#add8e6" stroke="#add8e6" stroke-width="2" points="678.1283,-1218.2218 688.7218,-1218.3862 680.543,-1211.6514 678.1283,-1218.2218"/>
</g>
<!-- 25&#45;&gt;14 -->
<g id="edge144" class="edge">
<title>25&#45;&gt;14</title>
<path fill="none" stroke="#add8e6" stroke-width="2" d="M364.0831,-1060.1494C367.6895,-1056.3633 371.7427,-1052.6379 375.9772,-1049.6998 508.6441,-957.6493 698.1263,-903.147 768.9917,-884.9441"/>
<polygon fill="#add8e6" stroke="#add8e6" stroke-width="2" points="770.107,-888.2724 778.9438,-882.4276 768.3909,-881.486 770.107,-888.2724"/>
</g>
</g>
</svg>
