<?xml version="1.0" encoding="UTF-8" standalone="no"?>
<!DOCTYPE svg PUBLIC "-//W3C//DTD SVG 1.1//EN"
 "http://www.w3.org/Graphics/SVG/1.1/DTD/svg11.dtd">
<!-- Generated by graphviz version 2.40.1 (20161225.0304)
 -->
<!-- Title: dot Pages: 1 -->
<svg width="619pt" height="405pt"
 viewBox="0.00 0.00 618.67 405.40" xmlns="http://www.w3.org/2000/svg" xmlns:xlink="http://www.w3.org/1999/xlink">
<g id="graph0" class="graph" transform="scale(1 1) rotate(0) translate(11.834 401.4026)">
<title>dot</title>
<polygon fill="#ffffff" stroke="transparent" points="-11.834,4 -11.834,-401.4026 606.834,-401.4026 606.834,4 -11.834,4"/>
<text text-anchor="middle" x="297.5" y="-364.6026" font-family="Times,serif" font-size="36.00" fill="#000000">Trisynaptic Loop as Commonly Modeled</text>
<g id="clust10" class="cluster">
<title>cluster_hippocampus</title>
<polygon fill="none" stroke="#ff6347" stroke-width="2" points="74.998,-.1495 74.998,-334.1495 290.998,-334.1495 290.998,-.1495 74.998,-.1495"/>
<text text-anchor="middle" x="182.998" y="-11.3495" font-family="Times,serif" font-size="36.00" fill="#000000">Hippocampus</text>
</g>
<g id="clust11" class="cluster">
<title>cluster_MTL</title>
<polygon fill="none" stroke="#556b2f" stroke-width="2" points="300.8216,-36.2244 300.8216,-267.2244 519.8216,-267.2244 519.8216,-36.2244 300.8216,-36.2244"/>
<text text-anchor="middle" x="410.3216" y="-47.4244" font-family="Times,serif" font-size="36.00" fill="#000000">MTL Cortices</text>
</g>
<!-- 1 -->
<g id="node1" class="node">
<title>1</title>
<ellipse fill="#ff6347" stroke="#ff6347" cx="247.4628" cy="-136.9236" rx="22.7601" ry="22.7601"/>
<text text-anchor="middle" x="247.4628" y="-132.7236" font-family="Times,serif" font-size="14.00" fill="#000000">DG</text>
</g>
<!-- 2 -->
<g id="node2" class="node">
<title>2</title>
<ellipse fill="#ff6347" stroke="#ff6347" cx="176.5555" cy="-299.1312" rx="26.6284" ry="26.6284"/>
<text text-anchor="middle" x="176.5555" y="-294.9312" font-family="Times,serif" font-size="14.00" fill="#000000">CA3</text>
</g>
<!-- 1&#45;&gt;2 -->
<g id="edge1" class="edge">
<title>1&#45;&gt;2</title>
<path fill="none" stroke="#ff6347" stroke-width="2" d="M238.193,-158.1294C226.3199,-185.2902 205.5949,-232.7007 191.4851,-264.9783"/>
<polygon fill="#ff6347" stroke="#ff6347" stroke-width="2" points="188.1342,-263.9058 187.3357,-274.4705 194.5481,-266.7096 188.1342,-263.9058"/>
</g>
<!-- 2&#45;&gt;2 -->
<g id="edge2" class="edge">
<title>2&#45;&gt;2</title>
<path fill="none" stroke="#ff6347" stroke-width="2" d="M195.0962,-318.5036C255.0497,-370.4168 347.3691,-363.9593 347.3691,-299.1312 347.3691,-237.0886 262.8129,-228.5083 202.9939,-273.3901"/>
<polygon fill="#ff6347" stroke="#ff6347" stroke-width="2" points="200.6835,-270.7569 195.0962,-279.7587 205.0776,-276.206 200.6835,-270.7569"/>
</g>
<!-- 3 -->
<g id="node3" class="node">
<title>3</title>
<ellipse fill="#ff6347" stroke="#ff6347" cx="132.1858" cy="-167.4194" rx="26.6284" ry="26.6284"/>
<text text-anchor="middle" x="132.1858" y="-163.2194" font-family="Times,serif" font-size="14.00" fill="#000000">CA1</text>
</g>
<!-- 2&#45;&gt;3 -->
<g id="edge3" class="edge">
<title>2&#45;&gt;3</title>
<path fill="none" stroke="#ff6347" stroke-width="2" d="M167.8953,-273.4231C161.1156,-253.2975 151.6108,-225.0826 144.1117,-202.8214"/>
<polygon fill="#ff6347" stroke="#ff6347" stroke-width="2" points="147.3336,-201.422 140.8242,-193.0626 140.6999,-203.6567 147.3336,-201.422"/>
</g>
<!-- 4 -->
<g id="node4" class="node">
<title>4</title>
<ellipse fill="#ff6347" stroke="#ff6347" cx="119.6361" cy="-76.4297" rx="23.7379" ry="23.7379"/>
<text text-anchor="middle" x="119.6361" y="-72.2297" font-family="Times,serif" font-size="14.00" fill="#000000">Sub</text>
</g>
<!-- 3&#45;&gt;4 -->
<g id="edge4" class="edge">
<title>3&#45;&gt;4</title>
<path fill="none" stroke="#ff6347" stroke-width="2" d="M128.4884,-140.6116C127.179,-131.1185 125.6885,-120.3114 124.3087,-110.3075"/>
<polygon fill="#ff6347" stroke="#ff6347" stroke-width="2" points="127.7567,-109.6899 122.9232,-100.2619 120.8224,-110.6463 127.7567,-109.6899"/>
</g>
<!-- 5 -->
<g id="node5" class="node">
<title>5</title>
<polygon fill="#a2cd5a" stroke="#a2cd5a" points="420.6165,-214.6886 373.9382,-214.6886 373.9382,-168.0103 420.6165,-168.0103 420.6165,-214.6886"/>
<text text-anchor="middle" x="397.2773" y="-187.1494" font-family="Times,serif" font-size="14.00" fill="#000000">MEC</text>
</g>
<!-- 3&#45;&gt;5 -->
<g id="edge5" class="edge">
<title>3&#45;&gt;5</title>
<path fill="none" stroke="#ff6347" stroke-width="2" d="M159.0631,-169.8457C207.7053,-174.2366 310.2262,-183.4913 363.5113,-188.3014"/>
<polygon fill="#ff6347" stroke="#ff6347" stroke-width="2" points="363.5153,-191.8159 373.7895,-189.2292 364.1447,-184.8442 363.5153,-191.8159"/>
</g>
<!-- 6 -->
<g id="node6" class="node">
<title>6</title>
<polygon fill="#a2cd5a" stroke="#a2cd5a" points="388.0766,-131.0497 345.1892,-131.0497 345.1892,-88.1623 388.0766,-88.1623 388.0766,-131.0497"/>
<text text-anchor="middle" x="366.6329" y="-105.406" font-family="Times,serif" font-size="14.00" fill="#000000">LEC</text>
</g>
<!-- 3&#45;&gt;6 -->
<g id="edge6" class="edge">
<title>3&#45;&gt;6</title>
<path fill="none" stroke="#ff6347" stroke-width="2" d="M159.0315,-168.5077C182.5708,-168.8743 217.5722,-167.9878 247.2585,-161.4025 278.8555,-154.3933 312.4726,-139.0079 335.9536,-126.8163"/>
<polygon fill="#ff6347" stroke="#ff6347" stroke-width="2" points="337.8574,-129.7684 345.0501,-121.9893 334.5761,-123.5851 337.8574,-129.7684"/>
</g>
<!-- 4&#45;&gt;5 -->
<g id="edge7" class="edge">
<title>4&#45;&gt;5</title>
<path fill="none" stroke="#ff6347" stroke-width="2" d="M143.041,-82.0627C168.9237,-88.511 211.7192,-99.8243 247.6672,-112.4447 290.3535,-127.4307 335.8465,-152.9564 365.3082,-170.9085"/>
<polygon fill="#ff6347" stroke="#ff6347" stroke-width="2" points="363.5672,-173.9468 373.916,-176.2167 367.2415,-167.9886 363.5672,-173.9468"/>
</g>
<!-- 4&#45;&gt;6 -->
<g id="edge8" class="edge">
<title>4&#45;&gt;6</title>
<path fill="none" stroke="#ff6347" stroke-width="2" d="M143.3192,-79.6108C188.0716,-85.6219 285.0548,-98.6485 335.1974,-105.3836"/>
<polygon fill="#ff6347" stroke="#ff6347" stroke-width="2" points="334.7737,-108.8581 345.1507,-106.7205 335.7057,-101.9204 334.7737,-108.8581"/>
</g>
<!-- 5&#45;&gt;1 -->
<g id="edge9" class="edge">
<title>5&#45;&gt;1</title>
<path fill="none" stroke="#a2cd5a" stroke-width="2" d="M373.8688,-182.8454C348.2505,-173.5386 307.0561,-158.5731 278.6965,-148.2704"/>
<polygon fill="#a2cd5a" stroke="#a2cd5a" stroke-width="2" points="279.8413,-144.9625 269.2472,-144.8376 277.451,-151.5418 279.8413,-144.9625"/>
</g>
<!-- 5&#45;&gt;2 -->
<g id="edge10" class="edge">
<title>5&#45;&gt;2</title>
<path fill="none" stroke="#a2cd5a" stroke-width="2" d="M374.1006,-196.0253C358.211,-199.6502 336.8547,-205.3586 318.9781,-213.066 278.2823,-230.6117 235.2197,-258.0324 207.2388,-277.1937"/>
<polygon fill="#a2cd5a" stroke="#a2cd5a" stroke-width="2" points="204.9353,-274.5315 198.7062,-283.1018 208.9202,-280.2866 204.9353,-274.5315"/>
</g>
<!-- 5&#45;&gt;3 -->
<g id="edge11" class="edge">
<title>5&#45;&gt;3</title>
<path fill="none" stroke="#a2cd5a" stroke-width="2" d="M373.7522,-189.2258C327.5638,-185.0563 224.7048,-175.7712 169.2765,-170.7676"/>
<polygon fill="#a2cd5a" stroke="#a2cd5a" stroke-width="2" points="169.4527,-167.2694 159.1784,-169.8561 168.8233,-174.241 169.4527,-167.2694"/>
</g>
<!-- 5&#45;&gt;4 -->
<g id="edge12" class="edge">
<title>5&#45;&gt;4</title>
<path fill="none" stroke="#a2cd5a" stroke-width="2" d="M373.916,-176.2167C345.2889,-158.3503 294.7693,-128.981 247.6672,-112.4447 215.9318,-101.3033 178.8598,-91.1805 152.799,-84.5244"/>
<polygon fill="#a2cd5a" stroke="#a2cd5a" stroke-width="2" points="153.5934,-81.1152 143.041,-82.0627 151.8811,-87.9026 153.5934,-81.1152"/>
</g>
<!-- 5&#45;&gt;6 -->
<g id="edge13" class="edge">
<title>5&#45;&gt;6</title>
<path fill="none" stroke="#a2cd5a" stroke-width="2" d="M388.5779,-168.1437C385.3552,-159.5472 381.6484,-149.6596 378.2098,-140.4872"/>
<polygon fill="#a2cd5a" stroke="#a2cd5a" stroke-width="2" points="381.407,-139.0447 374.6194,-130.9097 374.8524,-141.502 381.407,-139.0447"/>
</g>
<!-- 6&#45;&gt;1 -->
<g id="edge14" class="edge">
<title>6&#45;&gt;1</title>
<path fill="none" stroke="#a2cd5a" stroke-width="2" d="M345.3277,-114.4898C327.1151,-118.6647 300.6282,-124.7364 279.8012,-129.5106"/>
<polygon fill="#a2cd5a" stroke="#a2cd5a" stroke-width="2" points="278.7621,-126.158 269.797,-131.8039 280.3262,-132.981 278.7621,-126.158"/>
</g>
<!-- 6&#45;&gt;2 -->
<g id="edge15" class="edge">
<title>6&#45;&gt;2</title>
<path fill="none" stroke="#a2cd5a" stroke-width="2" d="M345.1981,-130.9785C310.1547,-165.9201 240.7103,-235.1628 202.7825,-272.9803"/>
<polygon fill="#a2cd5a" stroke="#a2cd5a" stroke-width="2" points="200.2468,-270.5661 195.6367,-280.1054 205.1894,-275.5231 200.2468,-270.5661"/>
</g>
<!-- 6&#45;&gt;3 -->
<g id="edge16" class="edge">
<title>6&#45;&gt;3</title>
<path fill="none" stroke="#a2cd5a" stroke-width="2" d="M345.0501,-121.9893C321.7743,-134.6094 283.2088,-153.4276 247.2585,-161.4025 221.6309,-167.0875 192.0422,-168.5254 169.2862,-168.5764"/>
<polygon fill="#a2cd5a" stroke="#a2cd5a" stroke-width="2" points="169.0548,-165.0749 159.0315,-168.5077 169.0078,-172.0747 169.0548,-165.0749"/>
</g>
<!-- 6&#45;&gt;4 -->
<g id="edge17" class="edge">
<title>6&#45;&gt;4</title>
<path fill="none" stroke="#a2cd5a" stroke-width="2" d="M345.1457,-106.7199C302.1025,-100.9384 205.0224,-87.8987 153.3999,-80.9648"/>
<polygon fill="#a2cd5a" stroke="#a2cd5a" stroke-width="2" points="153.7872,-77.4855 143.4103,-79.623 152.8553,-84.4232 153.7872,-77.4855"/>
</g>
<!-- 6&#45;&gt;5 -->
<g id="edge18" class="edge">
<title>6&#45;&gt;5</title>
<path fill="none" stroke="#a2cd5a" stroke-width="2" d="M374.6844,-131.0831C377.8431,-139.509 381.5385,-149.3664 385.0149,-158.6396"/>
<polygon fill="#a2cd5a" stroke="#a2cd5a" stroke-width="2" points="381.739,-159.8721 388.5266,-168.0071 388.2936,-157.4148 381.739,-159.8721"/>
</g>
<!-- 8 -->
<g id="node8" class="node">
<title>8</title>
<polygon fill="#a2cd5a" stroke="#a2cd5a" points="475.0861,-226.174 433.732,-226.174 433.732,-184.8199 475.0861,-184.8199 475.0861,-226.174"/>
<text text-anchor="middle" x="454.409" y="-201.297" font-family="Times,serif" font-size="14.00" fill="#000000">PER</text>
</g>
<!-- 6&#45;&gt;8 -->
<g id="edge19" class="edge">
<title>6&#45;&gt;8</title>
<path fill="none" stroke="#a2cd5a" stroke-width="2" d="M387.97,-128.8788C399.0154,-139.2098 412.4869,-152.3768 423.6463,-164.9805 424.2741,-165.6895 427.9352,-170.4726 432.5263,-176.5198"/>
<polygon fill="#a2cd5a" stroke="#a2cd5a" stroke-width="2" points="429.8525,-178.7866 438.6808,-184.6442 435.4323,-174.5597 429.8525,-178.7866"/>
</g>
<!-- 7 -->
<g id="node7" class="node">
<title>7</title>
<polygon fill="#a2cd5a" stroke="#a2cd5a" points="499.216,-170.3039 433.6021,-170.3039 433.6021,-104.69 499.216,-104.69 499.216,-170.3039"/>
<text text-anchor="middle" x="466.409" y="-133.297" font-family="Times,serif" font-size="14.00" fill="#000000">PrS_PoS</text>
</g>
<!-- 7&#45;&gt;5 -->
<g id="edge20" class="edge">
<title>7&#45;&gt;5</title>
<path fill="none" stroke="#a2cd5a" stroke-width="2" d="M433.4629,-163.1614C431.8458,-164.4212 430.224,-165.6845 428.6116,-166.9406"/>
<polygon fill="#a2cd5a" stroke="#a2cd5a" stroke-width="2" points="426.4323,-164.2016 420.6942,-173.1081 430.734,-169.7238 426.4323,-164.2016"/>
</g>
<!-- 8&#45;&gt;6 -->
<g id="edge21" class="edge">
<title>8&#45;&gt;6</title>
<path fill="none" stroke="#a2cd5a" stroke-width="2" d="M438.6808,-184.6442C431.5676,-175.2379 424.5391,-165.9889 423.6463,-164.9805 414.8409,-155.0354 404.5958,-144.7396 395.239,-135.7631"/>
<polygon fill="#a2cd5a" stroke="#a2cd5a" stroke-width="2" points="397.6373,-133.2139 387.97,-128.8788 392.824,-138.2964 397.6373,-133.2139"/>
</g>
<!-- 9 -->
<g id="node9" class="node">
<title>9</title>
<polygon fill="#a2cd5a" stroke="#a2cd5a" points="364.8735,-258.9614 321.9446,-258.9614 321.9446,-216.0325 364.8735,-216.0325 364.8735,-258.9614"/>
<text text-anchor="middle" x="343.409" y="-233.297" font-family="Times,serif" font-size="14.00" fill="#000000">PRC</text>
</g>
<!-- 8&#45;&gt;9 -->
<g id="edge22" class="edge">
<title>8&#45;&gt;9</title>
<path fill="none" stroke="#a2cd5a" stroke-width="2" d="M433.6984,-214.1698C430.3645,-215.4368 426.9301,-216.6668 423.6463,-217.7184 407.66,-222.8379 389.5264,-227.4091 374.5474,-230.8639"/>
<polygon fill="#a2cd5a" stroke="#a2cd5a" stroke-width="2" points="373.7337,-227.4594 364.7466,-233.0703 375.2711,-234.2885 373.7337,-227.4594"/>
</g>
<!-- 9&#45;&gt;5 -->
<g id="edge23" class="edge">
<title>9&#45;&gt;5</title>
<path fill="none" stroke="#a2cd5a" stroke-width="2" d="M364.6992,-219.2582C365.1771,-218.8489 365.6575,-218.4373 366.1397,-218.0242"/>
<polygon fill="#a2cd5a" stroke="#a2cd5a" stroke-width="2" points="368.6948,-220.444 374.0121,-211.2801 364.1407,-215.128 368.6948,-220.444"/>
</g>
</g>
</svg>
